<svg width="386" height="508" viewBox="0 0 386 508" fill="none" xmlns="http://www.w3.org/2000/svg">
<path opacity="0.0991676" d="M-110.245 263.353L-559.256 -2.27051C-573.551 -10.3165 -585.804 -23.4994 -571.875 -32.1482L-121.267 -292.11C-114.513 -296.304 -104.249 -299.056 -97.3637 -295.046L373.901 -21.2192C388.197 -12.9111 390.762 10.231 376.52 18.6177L-51.075 262.933C-69.3366 273.537 -91.8353 273.697 -110.245 263.353Z" stroke="#1E1F36"/>
<path opacity="0.0991676" d="M-110.245 338.353L-559.256 72.7295C-573.551 64.6835 -585.804 51.5006 -571.875 42.8518L-121.267 -217.11C-114.513 -221.304 -104.249 -224.056 -97.3637 -220.046L373.901 53.7808C388.197 62.0889 390.762 85.231 376.52 93.6177L-51.075 337.933C-69.3366 348.537 -91.8353 348.697 -110.245 338.353Z" stroke="#1E1F36"/>
<path opacity="0.0991676" d="M-110.245 647.353L-559.256 381.729C-573.551 373.683 -585.804 360.501 -571.875 351.852L-121.267 91.8897C-114.513 87.6963 -104.249 84.9444 -97.3637 88.9543L373.901 362.781C388.197 371.089 390.762 394.231 376.52 402.618L-51.075 646.933C-69.3366 657.537 -91.8353 657.697 -110.245 647.353Z" fill="#6862E6"/>
</svg>
