<svg width="966" height="945" viewBox="0 0 966 945" fill="none" xmlns="http://www.w3.org/2000/svg">
<path opacity="0.0991676" d="M468.755 561.353L19.744 295.729C5.44895 287.683 -6.80395 274.501 7.12455 265.852L457.733 5.88968C464.487 1.69632 474.751 -1.05557 481.636 2.95433L952.901 276.781C967.197 285.089 969.762 308.231 955.52 316.618L527.925 560.933C509.663 571.537 487.165 571.697 468.755 561.353Z" stroke="#1E1F36"/>
<path opacity="0.0991676" d="M468.755 636.353L19.744 370.729C5.44895 362.683 -6.80395 349.501 7.12455 340.852L457.733 80.8897C464.487 76.6963 474.751 73.9444 481.636 77.9543L952.901 351.781C967.197 360.089 969.762 383.231 955.52 391.618L527.925 635.933C509.663 646.537 487.165 646.697 468.755 636.353Z" stroke="#1E1F36"/>
<path d="M722.018 720.203L502.313 590.211C495.318 586.273 489.323 579.822 496.138 575.589L716.625 448.367C719.93 446.315 724.952 444.968 728.321 446.931L958.916 580.938C965.91 585.003 967.166 596.329 960.197 600.433L750.971 719.998C742.035 725.187 731.026 725.265 722.018 720.203Z" fill="#5B36A0"/>
<path d="M722.018 714.203L502.313 584.211C495.318 580.273 489.323 573.822 496.138 569.589L716.625 442.367C719.93 440.315 724.952 438.968 728.321 440.931L958.916 574.938C965.91 579.003 967.166 590.329 960.197 594.433L750.971 713.998C742.035 719.187 731.026 719.265 722.018 714.203Z" fill="#6862E6"/>
<g style="mix-blend-mode:multiply" opacity="0.25">
<path d="M740.133 542.693L696.781 567.46C696.781 567.46 763.564 608.26 777.22 614.006L802.188 578.093" fill="url(#paint0_linear_212_82)"/>
</g>
<g style="mix-blend-mode:multiply" opacity="0.25">
<path d="M725.157 661.513L681.792 636.798L638.427 661.565C638.427 661.565 661.013 675.366 682.599 688.038C696.307 678.328 710.027 668.517 725.157 661.513Z" fill="url(#paint1_linear_212_82)"/>
</g>
<g style="mix-blend-mode:multiply" opacity="0.46">
<path d="M631.727 508.883L604.223 524.595C604.223 524.595 606.554 538.999 620.211 544.745L656.222 521.658" fill="url(#paint2_linear_212_82)"/>
</g>
<ellipse cx="645.192" cy="512.898" rx="16.59" ry="11.6974" fill="#68E1FD"/>
<ellipse cx="645.179" cy="505.997" rx="12.4265" ry="5.09196" fill="#974C26"/>
<path fill-rule="evenodd" clip-rule="evenodd" d="M644.474 490.619C644.654 492.915 644.73 495.21 644.73 497.506C644.718 500.379 644.577 503.252 644.269 506.113C643.283 504.74 642.309 503.304 641.284 501.688C639.965 499.623 638.735 497.506 637.608 495.339C636.559 493.411 635.664 491.404 634.93 489.336C634.114 487.09 633.459 484.788 632.97 482.448C632.842 481.884 632.727 481.217 632.624 480.602V480.383V479.845C632.522 478.639 632.419 477.357 632.419 476.074C632.362 471.712 633.204 467.385 634.892 463.363C639.377 469.876 642.401 477.284 643.757 485.078C643.842 485.54 643.923 486.006 644 486.476C644 486.386 644.18 487.322 644.18 487.669L644.308 488.836C644.367 489.426 644.423 490.02 644.474 490.619ZM638.21 471.687C638.21 471.687 638.21 471.687 638.21 471.687H638.197C638.201 471.687 638.206 471.687 638.21 471.687ZM638.21 471.687C638.525 471.669 638.841 471.704 639.145 471.79C638.837 471.448 638.526 471.115 638.21 470.79C638.275 471.085 638.275 471.391 638.21 471.687Z" fill="#999A1C"/>
<path fill-rule="evenodd" clip-rule="evenodd" d="M652.494 493.338C651.405 495.428 650.278 497.34 648.997 499.276C647.446 501.7 645.73 504.035 644.026 506.305C643.911 504.625 643.911 502.88 643.911 500.969C643.911 498.52 644.013 496.083 644.244 493.646C644.402 491.456 644.732 489.281 645.23 487.143C645.753 484.809 646.443 482.516 647.293 480.281C647.523 479.691 647.767 479.114 648.01 478.537L648.01 478.537L648.074 478.331L648.33 477.857C648.907 476.741 649.522 475.638 650.188 474.573C652.502 470.868 655.554 467.68 659.156 465.21C659.416 473.124 657.96 481 654.89 488.297C654.71 488.716 654.527 489.144 654.339 489.58L653.839 490.683L653.314 491.747C653.049 492.278 652.776 492.808 652.494 493.338ZM657.887 473.239C657.801 473.529 657.652 473.796 657.452 474.022C657.702 474.154 657.93 474.322 658.131 474.522C658.062 474.112 657.981 473.684 657.887 473.239Z" fill="#999A1C"/>
<path fill-rule="evenodd" clip-rule="evenodd" d="M652.75 502.919C651.478 503.663 650.197 504.356 648.907 504.997C647.293 505.805 645.64 506.523 643.988 507.216C644.474 506.279 645.025 505.317 645.64 504.291C646.447 503.009 647.293 501.726 648.202 500.444C648.993 499.312 649.871 498.244 650.829 497.25C651.865 496.158 652.978 495.142 654.159 494.21L655.107 493.505L655.21 493.415L655.504 493.235C656.183 492.825 656.862 492.427 657.567 492.068C660.004 490.814 662.673 490.076 665.407 489.901C662.997 494.25 659.676 498.026 655.671 500.969L654.954 501.495L654.339 501.931L653.711 502.329L652.75 502.919ZM662.102 493.812C661.963 493.941 661.796 494.038 661.615 494.095V494.107C661.701 494.268 661.761 494.441 661.795 494.621C661.906 494.355 662.008 494.086 662.102 493.812Z" fill="#999A1C"/>
<path fill-rule="evenodd" clip-rule="evenodd" d="M644.474 490.619C644.654 492.915 644.73 495.21 644.73 497.506C644.718 500.379 644.577 503.252 644.269 506.113C643.283 504.74 642.309 503.304 641.284 501.688C639.965 499.623 638.735 497.506 637.608 495.339C636.559 493.411 635.664 491.404 634.93 489.336C634.114 487.09 633.459 484.788 632.97 482.448C632.842 481.884 632.727 481.217 632.624 480.602V480.383V479.845C632.522 478.639 632.419 477.357 632.419 476.074C632.362 471.712 633.204 467.385 634.892 463.363C639.377 469.876 642.401 477.284 643.757 485.078C643.842 485.54 643.923 486.006 644 486.476C644 486.386 644.18 487.322 644.18 487.669L644.308 488.836C644.367 489.426 644.423 490.02 644.474 490.619ZM638.21 471.687C638.21 471.687 638.21 471.687 638.21 471.687H638.197C638.201 471.687 638.206 471.687 638.21 471.687ZM638.21 471.687C638.525 471.669 638.841 471.704 639.145 471.79C638.837 471.448 638.526 471.115 638.21 470.79C638.275 471.085 638.275 471.391 638.21 471.687Z" fill="#999A1C"/>
<path fill-rule="evenodd" clip-rule="evenodd" d="M652.494 493.338C651.405 495.428 650.278 497.34 648.997 499.276C647.446 501.7 645.73 504.035 644.026 506.305C643.911 504.625 643.911 502.88 643.911 500.969C643.911 498.52 644.013 496.083 644.244 493.646C644.402 491.456 644.732 489.281 645.23 487.143C645.753 484.809 646.443 482.516 647.293 480.281C647.523 479.691 647.767 479.114 648.01 478.537L648.01 478.537L648.074 478.331L648.33 477.857C648.907 476.741 649.522 475.638 650.188 474.573C652.502 470.868 655.554 467.68 659.156 465.21C659.416 473.124 657.96 481 654.89 488.297C654.71 488.716 654.527 489.144 654.339 489.58L653.839 490.683L653.314 491.747C653.049 492.278 652.776 492.808 652.494 493.338ZM657.887 473.239C657.801 473.529 657.652 473.796 657.452 474.022C657.702 474.154 657.93 474.322 658.131 474.522C658.062 474.112 657.981 473.684 657.887 473.239Z" fill="#999A1C"/>
<path fill-rule="evenodd" clip-rule="evenodd" d="M652.75 502.919C651.478 503.663 650.197 504.356 648.907 504.997C647.293 505.805 645.64 506.523 643.988 507.216C644.474 506.279 645.025 505.317 645.64 504.291C646.447 503.009 647.293 501.726 648.202 500.444C648.993 499.312 649.871 498.244 650.829 497.25C651.865 496.158 652.978 495.142 654.159 494.21L655.107 493.505L655.21 493.415L655.504 493.235C656.183 492.825 656.862 492.427 657.567 492.068C660.004 490.814 662.673 490.076 665.407 489.901C662.997 494.25 659.676 498.026 655.671 500.969L654.954 501.495L654.339 501.931L653.711 502.329L652.75 502.919ZM662.102 493.812C661.963 493.941 661.796 494.038 661.615 494.095V494.107C661.701 494.268 661.761 494.441 661.795 494.621C661.906 494.355 662.008 494.086 662.102 493.812Z" fill="#999A1C"/>
<path d="M757.35 533.022L733.356 544.565C731.513 545.452 730.311 547.285 730.231 549.33C730.15 551.375 731.205 553.297 732.971 554.326L789.839 587.545C792.392 589.04 795.669 588.254 797.269 585.763L811.092 564.24" fill="#A1482D"/>
<path d="M887.854 477.344L696.525 366.962C693.853 365.424 690.566 365.428 687.898 366.973C685.23 368.517 683.587 371.368 683.586 374.453V489.285C683.586 491.851 684.953 494.222 687.173 495.505L891.146 613.39C892.578 614.221 894.345 614.222 895.778 613.394C897.211 612.565 898.093 611.033 898.09 609.375V495.018C898.084 487.717 894.18 480.976 887.854 477.344Z" fill="#F47B56"/>
<path d="M696.538 375.646L882.089 482.525C886.122 484.85 888.608 489.154 888.61 493.812V579.888C888.607 581.564 887.714 583.113 886.265 583.953C884.816 584.793 883.031 584.798 881.577 583.967L692.348 475.304C690.907 474.477 690.017 472.941 690.017 471.277V379.429C690.017 377.874 690.844 376.437 692.188 375.657C693.532 374.877 695.19 374.873 696.538 375.646Z" fill="white"/>
<ellipse cx="773.738" cy="533.465" rx="4.03558" ry="4.61719" transform="rotate(-10.9 773.738 533.465)" fill="#AB643C"/>
<path opacity="0.32" d="M746.41 492.427L832.639 544.296L875.235 519.503L799.126 475.151" fill="url(#paint3_linear_212_82)"/>
<path d="M852.97 482.102L759.746 425.193C758.73 424.604 757.474 424.615 756.468 425.22C755.461 425.825 754.862 426.93 754.903 428.104V460.529C754.895 461.722 755.513 462.832 756.53 463.453L849.742 519.157C850.739 519.724 851.962 519.717 852.952 519.138C853.942 518.559 854.549 517.496 854.546 516.348L855.033 486.117C855.105 484.507 854.32 482.979 852.97 482.102Z" fill="#E2AC00"/>
<path d="M830.667 498.789C834.01 503.47 839.89 504.779 843.785 501.726C847.679 498.674 848.128 492.402 844.784 487.733C841.44 483.064 835.56 481.743 831.666 484.796C827.771 487.848 827.323 494.107 830.667 498.789Z" fill="white"/>
<path d="M821.52 476.318L783.497 453.397C782.82 453.08 782.014 453.331 781.635 453.976C781.257 454.621 781.431 455.448 782.037 455.886L820.059 478.806C820.736 479.123 821.543 478.873 821.921 478.228C822.3 477.583 822.126 476.755 821.52 476.318Z" fill="#F2F2F2"/>
<path d="M819.957 485.629L767.548 454.039C766.885 453.807 766.152 454.084 765.808 454.697C765.464 455.31 765.609 456.081 766.151 456.527L818.496 488.131C819.173 488.448 819.98 488.197 820.358 487.552C820.737 486.907 820.563 486.08 819.957 485.642V485.629Z" fill="#F2F2F2"/>
<path d="M834.369 488.387L741.196 431.49C740.18 430.902 738.924 430.912 737.918 431.518C736.911 432.123 736.312 433.227 736.354 434.402V466.813C736.338 468.009 736.951 469.124 737.968 469.751L831.179 525.454C832.187 526.034 833.429 526.025 834.427 525.429C835.426 524.833 836.026 523.745 835.996 522.581L836.483 492.35C836.526 490.748 835.723 489.242 834.369 488.387Z" fill="#F47B56"/>
<path d="M812.065 505.074C815.409 509.755 821.289 511.064 825.184 508.011C829.078 504.958 829.526 498.686 826.183 494.018C822.839 489.349 816.959 488.028 813.064 491.08C809.17 494.133 808.722 500.392 812.065 505.074Z" fill="white"/>
<path d="M802.918 482.602L764.87 459.682C764.193 459.365 763.387 459.616 763.008 460.261C762.63 460.906 762.804 461.733 763.41 462.171L801.432 485.091C802.109 485.408 802.916 485.157 803.294 484.512C803.673 483.867 803.499 483.04 802.893 482.602H802.918Z" fill="#F2F2F2"/>
<path d="M801.343 491.978L748.946 460.336C748.27 460.019 747.463 460.27 747.084 460.915C746.706 461.56 746.88 462.387 747.486 462.825L799.895 494.415C800.572 494.732 801.378 494.482 801.757 493.837C802.135 493.192 801.962 492.364 801.355 491.927L801.343 491.978Z" fill="#F2F2F2"/>
<path d="M810.989 492.209L717.791 435.313C716.774 434.724 715.519 434.735 714.512 435.34C713.506 435.945 712.907 437.049 712.948 438.224V470.636C712.94 471.829 713.558 472.939 714.575 473.56L807.786 529.264C808.794 529.844 810.036 529.834 811.035 529.238C812.033 528.643 812.633 527.554 812.603 526.391L813.09 496.16C813.132 494.565 812.334 493.065 810.989 492.209Z" fill="#68E1FD"/>
<path d="M810.989 492.209L717.791 435.313C716.774 434.724 715.519 434.735 714.512 435.34C713.506 435.945 712.907 437.049 712.948 438.224V470.636C712.94 471.829 713.558 472.939 714.575 473.56L807.786 529.264C808.794 529.844 810.036 529.834 811.035 529.238C812.033 528.643 812.633 527.554 812.603 526.391L813.09 496.16C813.132 494.565 812.334 493.065 810.989 492.209Z" fill="#68E1FD"/>
<path d="M788.673 508.896C792.016 513.577 797.897 514.886 801.791 511.833C805.686 508.78 806.134 502.508 802.79 497.84C799.447 493.171 793.567 491.85 789.672 494.903C785.778 497.955 785.368 504.214 788.673 508.896Z" fill="white"/>
<path d="M779.526 486.425L741.491 463.504C740.814 463.187 740.007 463.438 739.629 464.083C739.25 464.728 739.424 465.555 740.03 465.993L778.053 488.913C778.729 489.23 779.536 488.98 779.915 488.335C780.293 487.69 780.119 486.862 779.513 486.425H779.526Z" fill="#F2F2F2"/>
<path d="M777.95 495.749L725.541 464.159C724.864 463.841 724.058 464.092 723.679 464.737C723.301 465.382 723.475 466.209 724.081 466.647L776.49 498.237C777.166 498.555 777.973 498.304 778.352 497.659C778.73 497.014 778.556 496.187 777.95 495.749Z" fill="#F2F2F2"/>
<path d="M688.672 489.028C682.649 494.218 678.094 500.902 675.464 508.409C670.826 521.235 682.42 542.192 682.42 542.192L700.458 527.891" fill="#FF8F6F"/>
<path d="M686.724 658.602L681.831 655.896L683.112 648.893C683.112 648.893 690.401 649.585 691.042 652.176" fill="#003B94"/>
<path d="M688.518 658.499C689.62 657.82 690.773 657.217 691.913 656.614C694.744 655.062 698.831 653.459 700.573 650.547C701.304 649.342 701.212 647.809 700.342 646.699C697.78 643.596 692.169 648.7 689.299 645.263C688.736 644.583 688.467 633.796 688.467 633.796L677.552 636.746C677.552 636.746 675.707 658.422 675.912 659.756C676.117 661.09 679.871 662.322 679.871 662.322C680.989 662.084 682.056 661.65 683.022 661.039C684.162 660.205 683.125 650.034 684.585 651.458C686.045 652.882 686.686 658.448 686.686 658.448C687.292 658.54 687.908 658.557 688.518 658.499Z" fill="#F47B56"/>
<path d="M707.568 669.081L702.674 666.413L703.955 659.41C703.955 659.41 711.244 660.103 711.885 662.694" fill="#003B94"/>
<path d="M709.412 668.978C710.514 668.299 711.667 667.696 712.807 667.093C715.638 665.541 719.725 663.938 721.467 661.026C722.198 659.821 722.106 658.288 721.237 657.178C718.674 654.074 713.063 659.179 710.194 655.742C709.63 655.062 709.361 644.275 709.361 644.275L698.446 647.225C698.446 647.225 696.589 668.978 696.794 670.261C696.999 671.544 700.752 672.826 700.752 672.826C701.87 672.588 702.937 672.154 703.904 671.544C705.044 670.71 704.006 660.539 705.467 661.962C706.927 663.386 707.568 668.953 707.568 668.953C708.179 669.037 708.799 669.046 709.412 668.978Z" fill="#F47B56"/>
<path d="M672.005 598.614L668.789 641.672C668.789 641.672 673.914 648.752 691.093 644.814L691.259 615.789" fill="#3E2928"/>
<path d="M691.849 607.144C691.477 610.851 691.849 651.74 691.849 651.74C691.849 651.74 696.602 660.641 717.291 651.74L716.996 616.994" fill="#3E2928"/>
<path d="M670.403 612.838C671.813 613.813 672.299 608.798 673.773 609.658C679.132 612.775 684.821 615.287 690.734 617.148H690.862C691.147 617.01 691.475 616.993 691.772 617.102C692.07 617.21 692.31 617.436 692.438 617.725C696.091 618.816 699.809 619.673 703.571 620.29C708.4 621.06 712.397 617.482 717.355 617.238C717.355 598.23 717.445 544.129 709.361 532.586L685.443 524.531C685.328 526.506 673.837 539.845 674.118 556.109C674.439 574.437 672.056 591.727 671.646 597.46C671.582 598.435 670.455 611.8 670.403 612.838Z" fill="#3E2928"/>
<path d="M711.565 510.73L709.361 532.534C709.361 532.534 691.516 533.253 683.829 527.943V509.447" fill="#FF8F6F"/>
<path d="M734.252 496.378L732.433 498.866C733.403 496.842 734.259 494.765 734.995 492.645C735.508 491.196 733.189 490.619 732.677 492.068L732.408 492.812C732.63 492.042 732.839 491.269 733.035 490.49C733.195 489.849 732.805 489.2 732.164 489.041C731.524 488.882 730.876 489.272 730.717 489.913C730.214 491.926 729.611 493.912 728.91 495.865C729.302 494.131 729.584 492.375 729.756 490.606C729.91 489.08 727.514 489.144 727.373 490.606C727.174 492.62 726.814 494.614 726.297 496.57C726.297 495.886 726.233 495.202 726.105 494.518C726.069 494.173 725.887 493.86 725.605 493.659C725.541 493.389 725.464 493.133 725.375 492.863C725.187 492.309 724.629 491.97 724.052 492.059C723.474 492.147 723.044 492.638 723.03 493.222L722.876 502.201C722.443 503.132 721.877 503.996 721.198 504.766C722.351 505.564 723.463 506.42 724.529 507.331C725.48 508.136 726.387 508.993 727.245 509.896C728.014 508.939 728.752 507.964 729.461 506.972C729.549 506.897 729.627 506.811 729.692 506.715C731.827 503.552 734.03 500.439 736.302 497.378C737.25 496.326 735.162 495.159 734.252 496.378Z" fill="#FFB5A9"/>
<path d="M700.24 490.85C700.24 490.85 708.669 493.12 712.09 498.545C714.232 502.3 716.119 506.196 717.739 510.204L723.965 500.52C723.965 500.52 731.524 502.842 734.521 506.562C734.521 506.562 725.554 526.185 717.739 527.866C709.925 529.546 701.623 516.348 701.623 516.348C701.623 516.348 699.907 521.863 700.24 515.976" fill="#FF8F6F"/>
<path d="M705.595 511.82C703.144 509.824 701.295 507.187 700.253 504.202C699.241 500.751 700.509 497.724 701.687 494.518C702.963 491.34 703.708 487.973 703.891 484.552C703.993 481.192 703.609 477.831 703.378 474.484C703.346 474.34 703.346 474.191 703.378 474.047C702.251 470.264 699.945 467.057 695.397 466.672C683.624 465.672 682.958 478.729 683.048 484.039C683.137 489.349 683.701 492.94 679.794 495.159C675.886 497.378 673.068 503.201 676.796 507.908C680.524 512.616 677.18 510.897 674.695 515.078C672.21 519.259 672.85 524.48 677.949 526.365C683.048 528.251 706.748 524.711 708.926 522.517C709.698 521.634 710.098 520.484 710.04 519.311C709.509 516.359 707.93 513.699 705.595 511.82Z" fill="#007F68"/>
<path fill-rule="evenodd" clip-rule="evenodd" d="M720.506 413.88C720.325 410.384 719.171 407.008 717.176 404.132C715.4 401.259 712.777 399.009 709.668 397.694C708.076 396.983 706.277 396.891 704.621 397.437C703.041 397.997 701.738 399.146 700.983 400.644C700.073 402.429 699.666 404.429 699.804 406.428C699.915 408.807 700.471 411.143 701.444 413.316C702.415 415.591 703.757 417.689 705.415 419.524C706.814 421.155 708.567 422.445 710.54 423.295C711.234 423.572 711.962 423.757 712.705 423.846C713.27 423.922 713.843 423.922 714.408 423.846C714.85 423.785 715.281 423.664 715.69 423.487C715.949 423.385 716.202 423.265 716.445 423.128L716.702 422.948L715.151 420.062L714.639 420.345C714.118 420.585 713.546 420.691 712.974 420.652C712.095 420.662 711.223 420.491 710.411 420.152C708.08 419.082 706.16 417.281 704.941 415.022C703.411 412.734 702.525 410.075 702.379 407.326C702.133 405.14 702.891 402.96 704.442 401.4C705.911 400.101 708.023 399.831 709.771 400.721C712.124 401.7 714.11 403.396 715.446 405.569C716.933 407.705 717.79 410.216 717.919 412.816C718.013 415.441 717.44 416.51 716.202 416.022C715.761 415.831 715.392 415.503 715.151 415.086C714.868 414.654 714.708 414.153 714.69 413.637L714.434 406.428L711.872 405.428V406.569L711.641 406.159C711.378 405.783 711.068 405.443 710.719 405.146C710.309 404.774 709.836 404.478 709.323 404.273C708.286 403.763 707.041 403.958 706.21 404.761C705.265 405.805 704.828 407.213 705.018 408.609C705.072 410.333 705.585 412.011 706.504 413.47C707.267 414.812 708.445 415.87 709.861 416.484C710.454 416.753 711.116 416.834 711.757 416.715C712.14 416.658 712.502 416.504 712.807 416.266C712.927 416.134 713.031 415.987 713.115 415.83L713.422 416.433C713.718 416.951 714.089 417.422 714.524 417.831C715.008 418.333 715.593 418.727 716.24 418.985C717.301 419.55 718.609 419.323 719.417 418.433C720.341 417.107 720.73 415.481 720.506 413.88ZM712.051 411.353C712.135 412.031 711.946 412.714 711.526 413.252C711.133 413.642 710.533 413.735 710.04 413.483C709.354 413.185 708.782 412.672 708.413 412.02C707.964 411.304 707.712 410.481 707.683 409.635C707.593 408.962 707.799 408.284 708.246 407.775C708.678 407.385 709.305 407.303 709.822 407.57C710.48 407.856 711.025 408.352 711.372 408.981C711.797 409.701 712.031 410.517 712.051 411.353Z" fill="#F47B56"/>
<path fill-rule="evenodd" clip-rule="evenodd" d="M871.764 552.761C871.586 549.264 870.432 545.887 868.433 543.013C866.721 540.108 864.152 537.805 861.08 536.421C859.482 535.715 857.68 535.623 856.019 536.164C854.44 536.732 853.138 537.884 852.381 539.383C851.471 541.164 851.063 543.16 851.202 545.155C851.312 547.534 851.869 549.87 852.842 552.043C853.813 554.322 855.155 556.424 856.814 558.263C858.214 559.89 859.966 561.176 861.938 562.022C862.628 562.303 863.351 562.492 864.09 562.586C864.66 562.661 865.237 562.661 865.807 562.586C866.246 562.517 866.676 562.397 867.088 562.227C867.348 562.124 867.6 562.004 867.844 561.868L868.1 561.688L866.55 558.802L866.037 559.084C865.515 559.32 864.944 559.426 864.372 559.392C863.492 559.392 862.622 559.217 861.81 558.879C859.482 557.861 857.542 556.121 856.275 553.915C854.743 551.629 853.857 548.97 853.713 546.22C853.441 544.029 854.182 541.833 855.725 540.256C857.198 538.964 859.308 538.7 861.054 539.589C863.4 540.568 865.38 542.259 866.716 544.424C868.202 546.565 869.059 549.08 869.189 551.684C869.266 554.313 868.74 555.378 867.459 554.89C867.018 554.699 866.65 554.371 866.409 553.954C866.13 553.52 865.97 553.02 865.948 552.505L865.691 545.296L863.129 544.309V545.45L862.886 545.04C862.622 544.661 862.312 544.316 861.963 544.014C861.554 543.641 861.081 543.346 860.567 543.142C859.534 542.633 858.294 542.828 857.467 543.629C856.516 544.669 856.079 546.08 856.275 547.477C856.329 549.207 856.847 550.89 857.774 552.351C858.535 553.698 859.713 554.761 861.131 555.378C861.72 555.647 862.379 555.723 863.014 555.596C863.398 555.542 863.76 555.387 864.064 555.147C864.182 555.013 864.285 554.867 864.372 554.711L864.679 555.313C864.978 555.83 865.349 556.301 865.781 556.712C866.268 557.211 866.852 557.604 867.498 557.866C868.559 558.426 869.864 558.2 870.675 557.314C871.598 555.988 871.987 554.362 871.764 552.761ZM863.321 550.234C863.402 550.914 863.208 551.597 862.783 552.133C862.387 552.519 861.788 552.607 861.297 552.351C860.61 552.048 860.039 551.531 859.67 550.876C859.221 550.163 858.969 549.345 858.94 548.503C858.851 547.828 859.061 547.148 859.517 546.643C859.951 546.257 860.578 546.181 861.092 546.451C861.748 546.736 862.289 547.233 862.63 547.862C863.061 548.58 863.299 549.397 863.321 550.234Z" fill="#F47B56"/>
<g style="mix-blend-mode:multiply" opacity="0.25">
<path d="M613.139 597.704L569.774 573.001L526.423 597.755C526.423 597.755 550.545 612.839 572.132 625.511C585.839 615.814 598.022 604.72 613.139 597.704Z" fill="url(#paint4_linear_212_82)"/>
</g>
<g filter="url(#filter0_d_212_82)">
<path fill-rule="evenodd" clip-rule="evenodd" d="M531.93 528.886V582.755L573.899 606.791L621.286 578.766V524.897" fill="#FF9271"/>
</g>
<path d="M573.899 552.922V606.791L621.286 578.766V524.897L573.899 552.922Z" fill="#DF5C34"/>
<path d="M531.93 528.886L580.624 501.13L621.286 524.897L573.899 552.922L531.93 528.886Z" fill="#F47B56"/>
<path fill-rule="evenodd" clip-rule="evenodd" d="M589.22 516.624C584.879 514.247 579.95 513.161 575.013 513.494C569.833 513.586 564.773 515.065 560.358 517.778C558.042 519.097 556.2 521.112 555.092 523.537C554.169 525.637 554.169 528.029 555.092 530.13C556.21 532.512 558.072 534.466 560.396 535.696C563.276 537.324 566.451 538.362 569.735 538.749C573.349 539.249 577.018 539.184 580.611 538.557C583.909 538.055 587.077 536.913 589.938 535.196C590.931 534.589 591.854 533.875 592.692 533.067C593.328 532.464 593.895 531.793 594.383 531.066C594.721 530.527 594.996 529.95 595.203 529.347C595.346 528.972 595.462 528.586 595.549 528.193C595.557 528.048 595.557 527.902 595.549 527.757L590.796 527.488L590.617 528.296C590.359 529.11 589.921 529.855 589.336 530.476C588.461 531.492 587.427 532.358 586.274 533.041C582.942 535.017 579.128 536.029 575.257 535.966C571.368 536.13 567.509 535.211 564.111 533.311C560.998 531.477 559.397 529.193 559.397 526.628C559.371 524.012 560.87 521.759 563.893 519.869C567.216 517.843 571.021 516.749 574.911 516.701C578.581 516.459 582.244 517.274 585.467 519.048C588.499 520.844 589.131 522.293 587.363 523.396C586.067 524.094 584.508 524.094 583.212 523.396L574.872 518.484L571.272 520.728L572.553 521.498H571.849C571.159 521.536 570.476 521.652 569.812 521.844C568.98 522.06 568.185 522.402 567.455 522.857C565.903 523.594 564.908 525.153 564.893 526.872C564.969 528.462 565.994 529.848 567.993 531.028C570.106 532.242 572.513 532.85 574.949 532.785C577.304 532.831 579.624 532.218 581.649 531.015C582.518 530.522 583.242 529.81 583.75 528.95C584.055 528.487 584.232 527.951 584.263 527.398C584.234 527.164 584.174 526.935 584.083 526.718L585.057 526.795C585.949 526.821 586.84 526.731 587.709 526.526C588.765 526.312 589.776 525.913 590.694 525.346C592.628 524.178 593.448 522.793 593.256 521.203C593.064 519.612 591.706 518.086 589.22 516.624ZM578.075 524.756C578.906 525.117 579.506 525.866 579.676 526.757H579.728C579.741 527.576 579.268 528.326 578.523 528.668C577.539 529.249 576.412 529.543 575.269 529.514C574.081 529.542 572.907 529.245 571.875 528.655C571.053 528.295 570.48 527.531 570.363 526.641C570.382 525.787 570.876 525.015 571.644 524.64C572.579 524.08 573.656 523.804 574.744 523.845C575.916 523.847 577.065 524.161 578.075 524.756Z" fill="#3E2928"/>
<path opacity="0.0991676" d="M468.755 937.353L19.744 671.729C5.44895 663.683 -6.80395 650.501 7.12455 641.852L457.733 381.89C464.487 377.696 474.751 374.944 481.636 378.954L952.901 652.781C967.197 661.089 969.762 684.231 955.52 692.618L527.925 936.933C509.663 947.537 487.165 947.697 468.755 937.353Z" fill="#6862E6"/>
<defs>
<filter id="filter0_d_212_82" x="481.93" y="499.897" width="189.355" height="181.895" filterUnits="userSpaceOnUse" color-interpolation-filters="sRGB">
<feFlood flood-opacity="0" result="BackgroundImageFix"/>
<feColorMatrix in="SourceAlpha" type="matrix" values="0 0 0 0 0 0 0 0 0 0 0 0 0 0 0 0 0 0 127 0" result="hardAlpha"/>
<feOffset dy="25"/>
<feGaussianBlur stdDeviation="25"/>
<feColorMatrix type="matrix" values="0 0 0 0 0.209139 0 0 0 0 0.0691446 0 0 0 0 0.478091 0 0 0 0.497159 0"/>
<feBlend mode="normal" in2="BackgroundImageFix" result="effect1_dropShadow_212_82"/>
<feBlend mode="normal" in="SourceGraphic" in2="effect1_dropShadow_212_82" result="shape"/>
</filter>
<linearGradient id="paint0_linear_212_82" x1="739.715" y1="550.543" x2="728.685" y2="583.24" gradientUnits="userSpaceOnUse">
<stop stop-color="#78B46A"/>
<stop offset="0.03" stop-color="#7F3500"/>
<stop offset="1" stop-color="white"/>
</linearGradient>
<linearGradient id="paint1_linear_212_82" x1="667.536" y1="617.477" x2="648.981" y2="675.838" gradientUnits="userSpaceOnUse">
<stop stop-color="#78B46A"/>
<stop offset="0.03" stop-color="#7F3500"/>
<stop offset="1" stop-color="white"/>
</linearGradient>
<linearGradient id="paint2_linear_212_82" x1="621.7" y1="495.002" x2="604.536" y2="534.625" gradientUnits="userSpaceOnUse">
<stop stop-color="#78B46A"/>
<stop offset="0.03" stop-color="#7F3500"/>
<stop offset="1" stop-color="white"/>
</linearGradient>
<linearGradient id="paint3_linear_212_82" x1="862.656" y1="530.452" x2="855.951" y2="513.459" gradientUnits="userSpaceOnUse">
<stop stop-color="white" stop-opacity="0.01"/>
<stop offset="0.99" stop-color="#DC841E"/>
</linearGradient>
<linearGradient id="paint4_linear_212_82" x1="556.555" y1="553.35" x2="537.033" y2="611.801" gradientUnits="userSpaceOnUse">
<stop stop-color="#78B46A"/>
<stop offset="0.03" stop-color="#7F3500"/>
<stop offset="1" stop-color="white"/>
</linearGradient>
</defs>
</svg>
