<svg width="484" height="359" viewBox="0 0 484 359" fill="none" xmlns="http://www.w3.org/2000/svg">
<path d="M240.877 354.391L21.1716 224.399C14.1769 220.461 8.18145 214.01 14.9968 209.777L235.484 82.5553C238.789 80.5031 243.811 79.1564 247.18 81.1188L477.775 215.126C484.769 219.192 486.025 230.517 479.056 234.621L269.829 354.186C260.894 359.376 249.885 359.454 240.877 354.391Z" fill="#5B36A0"/>
<path d="M240.877 348.391L21.1716 218.399C14.1769 214.461 8.18145 208.01 14.9968 203.777L235.484 76.5553C238.789 74.5031 243.811 73.1564 247.18 75.1188L477.775 209.126C484.769 213.192 486.025 224.517 479.056 228.621L269.829 348.186C260.894 353.376 249.885 353.454 240.877 348.391Z" fill="#6862E6"/>
<g style="mix-blend-mode:multiply" opacity="0.25">
<path d="M258.991 176.881L215.64 201.648C215.64 201.648 282.422 242.448 296.079 248.194L321.047 212.281" fill="url(#paint0_linear_219_3)"/>
</g>
<g style="mix-blend-mode:multiply" opacity="0.25">
<path d="M244.016 295.702L200.651 270.986L157.286 295.753C157.286 295.753 179.872 309.554 201.458 322.226C215.166 312.517 228.886 302.705 244.016 295.702Z" fill="url(#paint1_linear_219_3)"/>
</g>
<g style="mix-blend-mode:multiply" opacity="0.46">
<path d="M150.586 143.071L123.082 158.783C123.082 158.783 125.413 173.187 139.069 178.933L175.081 155.846" fill="url(#paint2_linear_219_3)"/>
</g>
<ellipse cx="164.051" cy="147.086" rx="16.59" ry="11.6974" fill="#68E1FD"/>
<ellipse cx="164.038" cy="140.186" rx="12.4265" ry="5.09196" fill="#974C26"/>
<path fill-rule="evenodd" clip-rule="evenodd" d="M163.333 124.807C163.513 127.103 163.589 129.399 163.589 131.695C163.577 134.568 163.436 137.441 163.128 140.301C162.142 138.929 161.168 137.492 160.143 135.876C158.824 133.811 157.594 131.695 156.467 129.527C155.418 127.599 154.523 125.592 153.789 123.524C152.973 121.278 152.318 118.977 151.829 116.637C151.701 116.073 151.586 115.406 151.483 114.79V114.572V114.033C151.381 112.828 151.278 111.545 151.278 110.262C151.221 105.9 152.063 101.573 153.751 97.5516C158.236 104.065 161.26 111.472 162.616 119.266C162.701 119.728 162.782 120.194 162.859 120.664C162.859 120.574 163.039 121.511 163.039 121.857L163.167 123.024C163.226 123.614 163.282 124.209 163.333 124.807ZM157.069 105.875C157.069 105.875 157.069 105.876 157.069 105.876H157.056C157.06 105.876 157.065 105.875 157.069 105.875ZM157.069 105.875C157.384 105.857 157.7 105.892 158.004 105.978C157.696 105.636 157.385 105.303 157.069 104.978C157.134 105.273 157.134 105.58 157.069 105.875Z" fill="#999A1C"/>
<path fill-rule="evenodd" clip-rule="evenodd" d="M171.353 127.526C170.264 129.617 169.137 131.528 167.855 133.465C166.305 135.889 164.589 138.223 162.885 140.493C162.77 138.813 162.77 137.069 162.77 135.158C162.77 132.708 162.872 130.271 163.103 127.834C163.261 125.644 163.591 123.47 164.089 121.331C164.612 118.998 165.302 116.705 166.152 114.469C166.382 113.879 166.626 113.302 166.869 112.725L166.869 112.725L166.933 112.52L167.189 112.045C167.766 110.929 168.381 109.826 169.047 108.762C171.36 105.056 174.413 101.868 178.014 99.3987C178.274 107.312 176.819 115.189 173.748 122.486C173.569 122.905 173.385 123.332 173.198 123.768L172.698 124.871L172.173 125.936C171.908 126.466 171.635 126.996 171.353 127.526ZM176.746 107.428C176.66 107.717 176.511 107.984 176.311 108.21C176.56 108.342 176.789 108.511 176.99 108.71C176.921 108.3 176.84 107.872 176.746 107.428Z" fill="#999A1C"/>
<path fill-rule="evenodd" clip-rule="evenodd" d="M171.609 137.107C170.336 137.851 169.055 138.544 167.766 139.185C166.152 139.993 164.499 140.711 162.846 141.404C163.333 140.468 163.884 139.506 164.499 138.48C165.306 137.197 166.152 135.915 167.061 134.632C167.852 133.5 168.73 132.432 169.687 131.438C170.724 130.347 171.837 129.331 173.018 128.398L173.966 127.693L174.069 127.603L174.363 127.424C175.042 127.013 175.721 126.616 176.426 126.256C178.863 125.002 181.532 124.265 184.266 124.089C181.856 128.438 178.535 132.215 174.53 135.158L173.812 135.684L173.198 136.12L172.57 136.517L171.609 137.107ZM180.961 128.001C180.821 128.13 180.655 128.226 180.474 128.283V128.296C180.559 128.457 180.62 128.63 180.653 128.809C180.764 128.544 180.867 128.274 180.961 128.001Z" fill="#999A1C"/>
<path fill-rule="evenodd" clip-rule="evenodd" d="M163.333 124.807C163.513 127.103 163.589 129.399 163.589 131.695C163.577 134.568 163.436 137.441 163.128 140.301C162.142 138.929 161.168 137.492 160.143 135.876C158.824 133.811 157.594 131.695 156.467 129.527C155.418 127.599 154.523 125.592 153.789 123.524C152.973 121.278 152.318 118.977 151.829 116.637C151.701 116.073 151.586 115.406 151.483 114.79V114.572V114.033C151.381 112.828 151.278 111.545 151.278 110.262C151.221 105.9 152.063 101.573 153.751 97.5516C158.236 104.065 161.26 111.472 162.616 119.266C162.701 119.728 162.782 120.194 162.859 120.664C162.859 120.574 163.039 121.511 163.039 121.857L163.167 123.024C163.226 123.614 163.282 124.209 163.333 124.807ZM157.069 105.875C157.069 105.875 157.069 105.876 157.069 105.876H157.056C157.06 105.876 157.065 105.875 157.069 105.875ZM157.069 105.875C157.384 105.857 157.7 105.892 158.004 105.978C157.696 105.636 157.385 105.303 157.069 104.978C157.134 105.273 157.134 105.58 157.069 105.875Z" fill="#999A1C"/>
<path fill-rule="evenodd" clip-rule="evenodd" d="M171.353 127.526C170.264 129.617 169.137 131.528 167.855 133.465C166.305 135.889 164.589 138.223 162.885 140.493C162.77 138.813 162.77 137.069 162.77 135.158C162.77 132.708 162.872 130.271 163.103 127.834C163.261 125.644 163.591 123.47 164.089 121.331C164.612 118.998 165.302 116.705 166.152 114.469C166.382 113.879 166.626 113.302 166.869 112.725L166.869 112.725L166.933 112.52L167.189 112.045C167.766 110.929 168.381 109.826 169.047 108.762C171.36 105.056 174.413 101.868 178.014 99.3987C178.274 107.312 176.819 115.189 173.748 122.486C173.569 122.905 173.385 123.332 173.198 123.768L172.698 124.871L172.173 125.936C171.908 126.466 171.635 126.996 171.353 127.526ZM176.746 107.428C176.66 107.717 176.511 107.984 176.311 108.21C176.56 108.342 176.789 108.511 176.99 108.71C176.921 108.3 176.84 107.872 176.746 107.428Z" fill="#999A1C"/>
<path fill-rule="evenodd" clip-rule="evenodd" d="M171.609 137.107C170.336 137.851 169.055 138.544 167.766 139.185C166.152 139.993 164.499 140.711 162.846 141.404C163.333 140.468 163.884 139.506 164.499 138.48C165.306 137.197 166.152 135.915 167.061 134.632C167.852 133.5 168.73 132.432 169.687 131.438C170.724 130.347 171.837 129.331 173.018 128.398L173.966 127.693L174.069 127.603L174.363 127.424C175.042 127.013 175.721 126.616 176.426 126.256C178.863 125.002 181.532 124.265 184.266 124.089C181.856 128.438 178.535 132.215 174.53 135.158L173.812 135.684L173.198 136.12L172.57 136.517L171.609 137.107ZM180.961 128.001C180.821 128.13 180.655 128.226 180.474 128.283V128.296C180.559 128.457 180.62 128.63 180.653 128.809C180.764 128.544 180.867 128.274 180.961 128.001Z" fill="#999A1C"/>
<path d="M276.209 167.21L252.215 178.754C250.372 179.64 249.17 181.473 249.09 183.518C249.009 185.563 250.063 187.485 251.83 188.514L308.697 221.734C311.251 223.228 314.528 222.442 316.128 219.951L329.951 198.429" fill="#A1482D"/>
<path d="M406.713 111.532L215.383 1.15079C212.712 -0.387234 209.425 -0.383345 206.757 1.16099C204.089 2.70533 202.446 5.55602 202.445 8.64123V123.473C202.444 126.039 203.812 128.411 206.032 129.694L410.005 247.578C411.437 248.409 413.204 248.411 414.637 247.582C416.07 246.753 416.952 245.221 416.949 243.564V129.206C416.943 121.905 413.039 115.164 406.713 111.532Z" fill="#F47B56"/>
<path d="M215.396 9.83407L400.948 116.714C404.981 119.039 407.467 123.342 407.469 128.001V214.077C407.466 215.753 406.572 217.301 405.124 218.141C403.675 218.981 401.889 218.987 400.436 218.155L211.207 109.493C209.765 108.665 208.876 107.129 208.876 105.465V13.6178C208.876 12.0625 209.703 10.625 211.047 9.84508C212.391 9.06519 214.048 9.061 215.396 9.83407Z" fill="white"/>
<ellipse cx="292.597" cy="167.654" rx="4.03558" ry="4.61719" transform="rotate(-10.9 292.597 167.654)" fill="#AB643C"/>
<path opacity="0.32" d="M265.269 126.616L351.498 178.484L394.094 153.691L317.985 109.339" fill="url(#paint3_linear_219_3)"/>
<path d="M371.829 116.291L278.605 59.3812C277.589 58.7927 276.333 58.8031 275.327 59.4083C274.32 60.0134 273.721 61.118 273.762 62.2927V94.7171C273.754 95.9102 274.372 97.0201 275.389 97.6414L368.601 153.345C369.598 153.912 370.821 153.905 371.811 153.326C372.801 152.747 373.408 151.684 373.405 150.536L373.892 120.305C373.964 118.695 373.179 117.167 371.829 116.291Z" fill="#E2AC00"/>
<path d="M349.526 132.977C352.869 137.659 358.749 138.967 362.644 135.914C366.538 132.862 366.987 126.59 363.643 121.921C360.299 117.253 354.419 115.931 350.525 118.984C346.63 122.037 346.182 128.296 349.526 132.977Z" fill="white"/>
<path d="M340.379 110.506L302.356 87.5858C301.679 87.2686 300.873 87.5191 300.494 88.1641C300.116 88.8091 300.29 89.6366 300.896 90.0741L338.918 112.994C339.595 113.312 340.402 113.061 340.78 112.416C341.159 111.771 340.985 110.944 340.379 110.506V110.506Z" fill="#F2F2F2"/>
<path d="M338.816 119.818L286.407 88.2271C285.744 87.9952 285.011 88.2727 284.667 88.8853C284.323 89.498 284.468 90.2694 285.01 90.7154L337.355 122.319C338.032 122.636 338.839 122.386 339.217 121.741C339.596 121.096 339.422 120.268 338.816 119.831V119.818Z" fill="#F2F2F2"/>
<path d="M353.228 122.575L260.055 65.6788C259.038 65.0904 257.783 65.1007 256.777 65.7059C255.77 66.311 255.171 67.4156 255.212 68.5903V101.002C255.197 102.197 255.81 103.312 256.826 103.939L350.038 159.643C351.046 160.223 352.288 160.213 353.286 159.617C354.285 159.022 354.884 157.933 354.855 156.77L355.342 126.539C355.385 124.937 354.582 123.43 353.228 122.575V122.575Z" fill="#F47B56"/>
<path d="M330.924 139.262C334.268 143.944 340.148 145.252 344.042 142.199C347.937 139.147 348.385 132.875 345.042 128.206C341.698 123.537 335.818 122.216 331.923 125.269C328.029 128.321 327.581 134.581 330.924 139.262Z" fill="white"/>
<path d="M321.777 116.791L283.729 93.8706C283.052 93.5534 282.246 93.8039 281.867 94.4489C281.489 95.0939 281.663 95.9214 282.269 96.3589L320.291 119.279C320.968 119.596 321.775 119.346 322.153 118.701C322.532 118.056 322.358 117.228 321.752 116.791H321.777Z" fill="#F2F2F2"/>
<path d="M320.202 126.167L267.805 94.5247C267.129 94.2074 266.322 94.458 265.943 95.103C265.565 95.748 265.739 96.5754 266.345 97.0129L318.754 128.604C319.431 128.921 320.237 128.67 320.616 128.025C320.994 127.38 320.821 126.553 320.214 126.115L320.202 126.167Z" fill="#F2F2F2"/>
<path d="M329.848 126.397L236.649 69.501C235.633 68.9125 234.378 68.9229 233.371 69.528C232.365 70.1332 231.766 71.2377 231.807 72.4125V104.824C231.799 106.017 232.417 107.127 233.434 107.748L326.645 163.452C327.653 164.032 328.895 164.022 329.894 163.427C330.892 162.831 331.492 161.742 331.462 160.579L331.949 130.348C331.991 128.753 331.193 127.253 329.848 126.397V126.397Z" fill="#68E1FD"/>
<path d="M329.848 126.397L236.649 69.501C235.633 68.9125 234.378 68.9229 233.371 69.528C232.365 70.1332 231.766 71.2377 231.807 72.4125V104.824C231.799 106.017 232.417 107.127 233.434 107.748L326.645 163.452C327.653 164.032 328.895 164.022 329.894 163.427C330.892 162.831 331.492 161.742 331.462 160.579L331.949 130.348C331.991 128.753 331.193 127.253 329.848 126.397V126.397Z" fill="#68E1FD"/>
<path d="M307.532 143.084C310.875 147.766 316.755 149.074 320.65 146.021C324.544 142.969 324.993 136.697 321.649 132.028C318.306 127.359 312.425 126.038 308.531 129.091C304.636 132.144 304.226 138.403 307.532 143.084Z" fill="white"/>
<path d="M298.385 120.613L260.349 97.6928C259.673 97.3755 258.866 97.6261 258.488 98.2711C258.109 98.9161 258.283 99.7435 258.889 100.181L296.911 123.101C297.588 123.418 298.395 123.168 298.773 122.523C299.152 121.878 298.978 121.05 298.372 120.613H298.385Z" fill="#F2F2F2"/>
<path d="M296.809 129.938L244.4 98.3469C243.723 98.0297 242.917 98.2803 242.538 98.9252C242.159 99.5702 242.333 100.398 242.94 100.835L295.349 132.426C296.025 132.743 296.832 132.493 297.211 131.848C297.589 131.203 297.415 130.375 296.809 129.938V129.938Z" fill="#F2F2F2"/>
<path d="M207.53 123.217C201.508 128.407 196.953 135.09 194.323 142.597C189.685 155.423 201.279 176.381 201.279 176.381L219.316 162.08" fill="#FF8F6F"/>
<path d="M205.583 292.79L200.69 290.084L201.971 283.081C201.971 283.081 209.26 283.774 209.9 286.365" fill="#003B94"/>
<path d="M207.377 292.688C208.478 292.008 209.631 291.405 210.772 290.802C213.603 289.25 217.689 287.647 219.432 284.735C220.163 283.53 220.071 281.997 219.201 280.888C216.639 277.784 211.028 282.889 208.158 279.451C207.595 278.771 207.325 267.985 207.325 267.985L196.411 270.935C196.411 270.935 194.566 292.611 194.771 293.945C194.976 295.279 198.729 296.51 198.729 296.51C199.847 296.272 200.914 295.838 201.881 295.227C203.021 294.394 201.983 284.222 203.444 285.646C204.904 287.07 205.545 292.636 205.545 292.636C206.151 292.728 206.766 292.746 207.377 292.688Z" fill="#F47B56"/>
<path d="M226.426 303.269L221.533 300.601L222.814 293.598C222.814 293.598 230.103 294.291 230.744 296.882" fill="#003B94"/>
<path d="M228.271 303.167C229.373 302.487 230.526 301.884 231.666 301.281C234.497 299.729 238.584 298.126 240.326 295.214C241.057 294.009 240.965 292.476 240.096 291.367C237.533 288.263 231.922 293.368 229.053 289.93C228.489 289.25 228.22 278.464 228.22 278.464L217.305 281.414C217.305 281.414 215.448 303.167 215.653 304.449C215.857 305.732 219.611 307.014 219.611 307.014C220.729 306.777 221.796 306.342 222.763 305.732C223.903 304.898 222.865 294.727 224.325 296.151C225.786 297.574 226.426 303.141 226.426 303.141C227.038 303.225 227.658 303.234 228.271 303.167Z" fill="#F47B56"/>
<path d="M190.864 232.803L187.648 275.86C187.648 275.86 192.772 282.94 209.952 279.002V279.002L210.118 249.977" fill="#3E2928"/>
<path d="M210.708 241.332C210.336 245.039 210.708 285.928 210.708 285.928C210.708 285.928 215.46 294.83 236.15 285.928L235.855 251.182" fill="#3E2928"/>
<path d="M189.262 247.027C190.671 248.002 191.158 242.987 192.632 243.846C197.991 246.963 203.68 249.475 209.593 251.336H209.721C210.006 251.198 210.334 251.181 210.631 251.29C210.929 251.399 211.169 251.624 211.297 251.914C214.95 253.005 218.668 253.861 222.429 254.479C227.259 255.248 231.256 251.67 236.214 251.426C236.214 232.418 236.304 178.317 228.22 166.774L204.302 158.719C204.187 160.694 192.696 174.034 192.977 190.297C193.298 208.626 190.915 225.915 190.505 231.648C190.441 232.623 189.314 245.988 189.262 247.027Z" fill="#3E2928"/>
<path d="M230.423 144.918L228.22 166.723C228.22 166.723 210.374 167.441 202.688 162.131V143.636" fill="#FF8F6F"/>
<path d="M253.111 130.566L251.292 133.054C252.262 131.03 253.118 128.954 253.854 126.834C254.367 125.384 252.048 124.807 251.536 126.256L251.267 127C251.489 126.231 251.698 125.457 251.894 124.679C252.054 124.038 251.663 123.389 251.023 123.229C250.383 123.07 249.735 123.461 249.576 124.102C249.073 126.114 248.47 128.101 247.769 130.053C248.161 128.319 248.443 126.563 248.615 124.794C248.768 123.268 246.373 123.332 246.232 124.794C246.033 126.808 245.673 128.802 245.156 130.758C245.156 130.074 245.092 129.39 244.964 128.706C244.928 128.361 244.746 128.048 244.464 127.847C244.4 127.578 244.323 127.321 244.233 127.052C244.046 126.498 243.488 126.158 242.911 126.247C242.333 126.335 241.903 126.826 241.889 127.411L241.735 136.389C241.301 137.32 240.736 138.184 240.057 138.954C241.21 139.753 242.322 140.609 243.388 141.519C244.339 142.325 245.246 143.181 246.104 144.085C246.872 143.127 247.611 142.152 248.32 141.16C248.408 141.086 248.486 140.999 248.551 140.904C250.686 137.74 252.889 134.628 255.161 131.566C256.109 130.515 254.021 129.348 253.111 130.566Z" fill="#FFB5A9"/>
<path d="M219.099 125.038C219.099 125.038 227.528 127.308 230.949 132.734C233.091 136.489 234.978 140.384 236.598 144.393L242.824 134.709C242.824 134.709 250.383 137.03 253.38 140.75C253.38 140.75 244.413 160.374 236.598 162.054C228.784 163.734 220.482 150.536 220.482 150.536C220.482 150.536 218.766 156.051 219.099 150.164" fill="#FF8F6F"/>
<path d="M224.454 146.009C222.003 144.013 220.154 141.375 219.111 138.39C218.099 134.94 219.368 131.913 220.546 128.706C221.822 125.528 222.567 122.161 222.75 118.74C222.852 115.38 222.468 112.02 222.237 108.672C222.204 108.528 222.204 108.379 222.237 108.236C221.11 104.452 218.804 101.246 214.256 100.861C202.483 99.8604 201.817 112.917 201.907 118.227C201.996 123.537 202.56 127.129 198.653 129.348C194.745 131.566 191.927 137.39 195.655 142.097C199.383 146.804 196.039 145.085 193.554 149.266C191.069 153.448 191.709 158.668 196.808 160.553C201.907 162.439 225.607 158.899 227.784 156.706C228.557 155.822 228.957 154.672 228.899 153.499C228.367 150.547 226.789 147.887 224.454 146.009V146.009Z" fill="#007F68"/>
<path fill-rule="evenodd" clip-rule="evenodd" d="M239.365 48.0686C239.184 44.5721 238.03 41.1959 236.035 38.3207C234.259 35.4475 231.636 33.1975 228.527 31.882C226.935 31.1709 225.136 31.0795 223.48 31.6255C221.9 32.1854 220.597 33.334 219.842 34.832C218.932 36.6176 218.525 38.6171 218.663 40.6166C218.774 42.995 219.33 45.3314 220.303 47.5042C221.274 49.7793 222.616 51.8771 224.274 53.712C225.673 55.3435 227.426 56.6333 229.399 57.4829C230.093 57.7604 230.821 57.9458 231.564 58.0344C232.129 58.1104 232.702 58.1104 233.267 58.0344C233.709 57.9732 234.14 57.8524 234.548 57.6753C234.808 57.5729 235.061 57.453 235.304 57.3162L235.561 57.1366L234.01 54.2507L233.498 54.5329C232.977 54.7737 232.405 54.8795 231.833 54.8407C230.953 54.85 230.082 54.6798 229.27 54.3405C226.939 53.2703 225.019 51.4695 223.8 49.2101C222.27 46.9226 221.384 44.2638 221.238 41.5144C220.991 39.3282 221.75 37.1481 223.301 35.5888C224.77 34.2892 226.882 34.0197 228.63 34.909C230.983 35.8882 232.969 37.5845 234.305 39.7573C235.792 41.8929 236.649 44.4041 236.778 47.004C236.872 49.6291 236.299 50.6979 235.061 50.2105C234.62 50.0193 234.251 49.6911 234.01 49.2742C233.726 48.8428 233.567 48.3413 233.549 47.8249L233.293 40.6166L230.731 39.6162V40.7577L230.5 40.3473C230.237 39.9717 229.927 39.6312 229.578 39.334C229.168 38.962 228.695 38.6666 228.182 38.4618C227.145 37.9514 225.9 38.1463 225.068 38.9492C224.123 39.9929 223.687 41.4012 223.877 42.797C223.931 44.521 224.444 46.1992 225.363 47.6581C226.126 49.0008 227.304 50.0587 228.72 50.6723C229.313 50.9413 229.975 51.0219 230.616 50.9031C230.999 50.8468 231.36 50.6921 231.666 50.4542C231.786 50.3223 231.89 50.1758 231.974 50.0181L232.281 50.621C232.577 51.1393 232.948 51.6106 233.383 52.019C233.867 52.5215 234.452 52.915 235.099 53.1733C236.16 53.7387 237.468 53.5116 238.276 52.6218C239.2 51.2957 239.589 49.6695 239.365 48.0686ZM230.91 45.5418C230.994 46.2193 230.805 46.9025 230.385 47.4401C229.992 47.8307 229.392 47.9238 228.899 47.671C228.212 47.3733 227.641 46.8601 227.272 46.2088C226.823 45.492 226.571 44.6689 226.542 43.8231C226.452 43.1508 226.658 42.4726 227.105 41.9633C227.537 41.5732 228.164 41.4915 228.681 41.7581C229.339 42.0445 229.884 42.5405 230.231 43.169C230.656 43.889 230.89 44.7058 230.91 45.5418Z" fill="#F47B56"/>
<path fill-rule="evenodd" clip-rule="evenodd" d="M390.623 186.949C390.444 183.452 389.291 180.075 387.292 177.202C385.58 174.296 383.011 171.993 379.938 170.609C378.341 169.903 376.539 169.812 374.878 170.352C373.299 170.92 371.997 172.072 371.24 173.572C370.33 175.353 369.922 177.348 370.061 179.344C370.171 181.722 370.728 184.059 371.701 186.231C372.672 188.51 374.014 190.612 375.672 192.452C377.073 194.079 378.825 195.364 380.797 196.21C381.487 196.491 382.21 196.681 382.949 196.774C383.519 196.85 384.096 196.85 384.666 196.774C385.105 196.706 385.535 196.585 385.947 196.415C386.206 196.313 386.459 196.193 386.702 196.056L386.959 195.876L385.409 192.991L384.896 193.273C384.374 193.508 383.803 193.614 383.231 193.581C382.351 193.58 381.481 193.406 380.669 193.067C378.341 192.049 376.401 190.309 375.134 188.104C373.601 185.817 372.716 183.158 372.572 180.408C372.3 178.217 373.041 176.022 374.583 174.444C376.057 173.152 378.167 172.888 379.913 173.777C382.259 174.757 384.239 176.448 385.575 178.612C387.061 180.753 387.918 183.268 388.048 185.872C388.124 188.501 387.599 189.566 386.318 189.079C385.877 188.887 385.508 188.559 385.268 188.142C384.988 187.709 384.829 187.208 384.806 186.693L384.55 179.485L381.988 178.497V179.639L381.745 179.228C381.481 178.849 381.171 178.504 380.822 178.202C380.413 177.829 379.94 177.534 379.426 177.33C378.393 176.822 377.153 177.017 376.326 177.817C375.374 178.857 374.937 180.269 375.134 181.665C375.188 183.395 375.706 185.078 376.633 186.539C377.394 187.886 378.572 188.949 379.99 189.566C380.579 189.835 381.238 189.912 381.873 189.784C382.257 189.731 382.619 189.576 382.923 189.335C383.041 189.201 383.144 189.055 383.231 188.899L383.538 189.502C383.836 190.018 384.208 190.489 384.64 190.9C385.126 191.399 385.711 191.792 386.357 192.054C387.418 192.615 388.723 192.388 389.534 191.503C390.457 190.177 390.846 188.55 390.623 186.949ZM382.18 184.423C382.261 185.102 382.067 185.785 381.642 186.321C381.246 186.707 380.647 186.795 380.156 186.539C379.469 186.236 378.898 185.719 378.529 185.064C378.08 184.352 377.828 183.533 377.799 182.691C377.71 182.017 377.92 181.337 378.375 180.831C378.81 180.446 379.437 180.369 379.951 180.639C380.606 180.924 381.148 181.421 381.488 182.05C381.919 182.768 382.158 183.585 382.18 184.423Z" fill="#F47B56"/>
<g style="mix-blend-mode:multiply" opacity="0.25">
<path d="M131.998 231.892L88.6333 207.189L45.2816 231.943C45.2816 231.943 69.4043 247.027 90.9905 259.699C104.698 250.003 116.881 238.908 131.998 231.892Z" fill="url(#paint4_linear_219_3)"/>
</g>
<g filter="url(#filter0_d_219_3)">
<path fill-rule="evenodd" clip-rule="evenodd" d="M50.7894 163.074V216.944L92.7576 240.98L140.145 212.955V159.085" fill="#FF9271"/>
</g>
<path d="M92.7576 187.11V240.98L140.145 212.955V159.085L92.7576 187.11V187.11Z" fill="#DF5C34"/>
<path d="M50.7894 163.074L99.4833 135.318L140.145 159.085L92.7576 187.11L50.7894 163.074V163.074Z" fill="#F47B56"/>
<path fill-rule="evenodd" clip-rule="evenodd" d="M108.079 150.812C103.738 148.435 98.8089 147.349 93.8721 147.683C88.6924 147.774 83.6317 149.253 79.2165 151.967C76.9009 153.285 75.0588 155.3 73.9513 157.726C73.028 159.826 73.028 162.218 73.9513 164.318C75.0693 166.7 76.9308 168.654 79.255 169.885C82.1348 171.513 85.3095 172.55 88.5941 172.937C92.2076 173.438 95.8768 173.373 99.4704 172.745C102.768 172.243 105.936 171.102 108.797 169.384C109.79 168.777 110.713 168.063 111.551 167.255C112.186 166.653 112.754 165.982 113.242 165.254C113.58 164.715 113.855 164.138 114.062 163.536C114.205 163.16 114.321 162.774 114.408 162.381C114.415 162.236 114.415 162.091 114.408 161.945L109.655 161.676L109.476 162.484C109.218 163.298 108.78 164.043 108.195 164.664C107.32 165.68 106.286 166.547 105.133 167.23C101.801 169.205 97.9873 170.218 94.1155 170.154C90.2266 170.318 86.3683 169.399 82.9701 167.499C79.8571 165.665 78.2557 163.382 78.2557 160.817C78.2301 158.2 79.729 155.947 82.7523 154.057C86.0745 152.031 89.8799 150.937 93.7696 150.889C97.4399 150.647 101.103 151.462 104.326 153.236C107.358 155.032 107.99 156.481 106.222 157.584C104.926 158.282 103.367 158.282 102.071 157.584L93.7312 152.672L90.1314 154.917L91.4124 155.686H90.7078C90.018 155.725 89.3347 155.841 88.6709 156.032C87.8385 156.249 87.0437 156.59 86.3137 157.046C84.7624 157.782 83.7674 159.341 83.7516 161.06C83.8284 162.651 84.8533 164.036 86.8518 165.216C88.9652 166.431 91.3721 167.039 93.8081 166.973C96.1625 167.019 98.483 166.406 100.508 165.203C101.377 164.711 102.101 163.999 102.609 163.138C102.914 162.675 103.091 162.14 103.122 161.586C103.093 161.352 103.033 161.124 102.942 160.906L103.916 160.983C104.808 161.01 105.699 160.919 106.568 160.714C107.624 160.5 108.635 160.101 109.553 159.534C111.487 158.367 112.307 156.982 112.115 155.391C111.923 153.801 110.565 152.274 108.079 150.812ZM96.9339 158.944C97.7651 159.305 98.3645 160.054 98.5352 160.945H98.5865C98.5997 161.765 98.1271 162.515 97.3823 162.856C96.3983 163.438 95.2708 163.731 94.1283 163.702C92.9398 163.73 91.7662 163.433 90.7335 162.843C89.9124 162.483 89.3391 161.719 89.2218 160.829C89.2411 159.975 89.7354 159.203 90.5029 158.829C91.4375 158.268 92.5146 157.992 93.6031 158.033C94.7745 158.035 95.9243 158.349 96.9339 158.944Z" fill="#3E2928"/>
<defs>
<filter id="filter0_d_219_3" x="0.789368" y="134.085" width="189.355" height="181.895" filterUnits="userSpaceOnUse" color-interpolation-filters="sRGB">
<feFlood flood-opacity="0" result="BackgroundImageFix"/>
<feColorMatrix in="SourceAlpha" type="matrix" values="0 0 0 0 0 0 0 0 0 0 0 0 0 0 0 0 0 0 127 0" result="hardAlpha"/>
<feOffset dy="25"/>
<feGaussianBlur stdDeviation="25"/>
<feColorMatrix type="matrix" values="0 0 0 0 0.209139 0 0 0 0 0.0691446 0 0 0 0 0.478091 0 0 0 0.497159 0"/>
<feBlend mode="normal" in2="BackgroundImageFix" result="effect1_dropShadow_219_3"/>
<feBlend mode="normal" in="SourceGraphic" in2="effect1_dropShadow_219_3" result="shape"/>
</filter>
<linearGradient id="paint0_linear_219_3" x1="258.574" y1="184.731" x2="247.544" y2="217.428" gradientUnits="userSpaceOnUse">
<stop stop-color="#78B46A"/>
<stop offset="0.03" stop-color="#7F3500"/>
<stop offset="1" stop-color="white"/>
</linearGradient>
<linearGradient id="paint1_linear_219_3" x1="186.395" y1="251.665" x2="167.84" y2="310.026" gradientUnits="userSpaceOnUse">
<stop stop-color="#78B46A"/>
<stop offset="0.03" stop-color="#7F3500"/>
<stop offset="1" stop-color="white"/>
</linearGradient>
<linearGradient id="paint2_linear_219_3" x1="140.559" y1="129.19" x2="123.395" y2="168.814" gradientUnits="userSpaceOnUse">
<stop stop-color="#78B46A"/>
<stop offset="0.03" stop-color="#7F3500"/>
<stop offset="1" stop-color="white"/>
</linearGradient>
<linearGradient id="paint3_linear_219_3" x1="381.515" y1="164.64" x2="374.81" y2="147.647" gradientUnits="userSpaceOnUse">
<stop stop-color="white" stop-opacity="0.01"/>
<stop offset="0.99" stop-color="#DC841E"/>
</linearGradient>
<linearGradient id="paint4_linear_219_3" x1="75.4139" y1="187.538" x2="55.8918" y2="245.989" gradientUnits="userSpaceOnUse">
<stop stop-color="#78B46A"/>
<stop offset="0.03" stop-color="#7F3500"/>
<stop offset="1" stop-color="white"/>
</linearGradient>
</defs>
</svg>
