<svg width="433" height="509" viewBox="0 0 433 509" fill="none" xmlns="http://www.w3.org/2000/svg">
<g clip-path="url(#clip0_0_105)">
<rect width="1440" height="768" transform="translate(-215 -129)" fill="white"/>
<rect x="-215" y="-129" width="1440" height="768" fill="url(#paint0_linear_0_105)"/>
<g filter="url(#filter0_d_0_105)">
<rect x="45" width="920" height="509" rx="23" fill="white"/>
</g>
<mask id="mask0_0_105" style="mask-type:luminance" maskUnits="userSpaceOnUse" x="45" y="0" width="920" height="509">
<rect x="45" width="920" height="509" rx="23" fill="white"/>
</mask>
<g mask="url(#mask0_0_105)">
<path opacity="0.0991676" d="M-63.245 642.353L-512.256 376.729C-526.551 368.683 -538.804 355.501 -524.875 346.852L-74.2674 86.8897C-67.5126 82.6963 -57.2495 79.9444 -50.3637 83.9543L420.901 357.781C435.197 366.089 437.762 389.231 423.52 397.618L-4.07501 641.933C-22.3366 652.537 -44.8353 652.697 -63.245 642.353Z" fill="#6862E6"/>
<path opacity="0.0991676" d="M-63.245 266.353L-512.256 0.729492C-526.551 -7.31652 -538.804 -20.4994 -524.875 -29.1482L-74.2674 -289.11C-67.5126 -293.304 -57.2494 -296.056 -50.3637 -292.046L420.901 -18.2192C435.197 -9.91114 437.762 13.231 423.52 21.6177L-4.07501 265.933C-22.3366 276.537 -44.8353 276.697 -63.245 266.353Z" stroke="#1E1F36"/>
<path opacity="0.0991676" d="M-63.245 341.353L-512.256 75.7295C-526.551 67.6835 -538.804 54.5006 -524.875 45.8518L-74.2674 -214.11C-67.5126 -218.304 -57.2494 -221.056 -50.3637 -217.046L420.901 56.7808C435.197 65.0889 437.762 88.231 423.52 96.6177L-4.07501 340.933C-22.3366 351.537 -44.8353 351.697 -63.245 341.353Z" stroke="#1E1F36"/>
<path d="M190.018 425.203L-29.6873 295.211C-36.682 291.273 -42.6775 284.822 -35.8621 280.589L184.625 153.367C187.93 151.315 192.952 149.968 196.321 151.93L426.916 285.937C433.91 290.003 435.166 301.329 428.197 305.433L218.971 424.998C210.035 430.187 199.026 430.265 190.018 425.203Z" fill="#5B36A0"/>
<path d="M190.018 419.203L-29.6873 289.211C-36.682 285.273 -42.6775 278.822 -35.8621 274.589L184.625 147.367C187.93 145.315 192.952 143.968 196.321 145.93L426.916 279.937C433.91 284.003 435.166 295.329 428.197 299.433L218.971 418.998C210.035 424.187 199.026 424.265 190.018 419.203Z" fill="#6862E6"/>
<g style="mix-blend-mode:multiply" opacity="0.25">
<path d="M208.133 247.693L164.781 272.46C164.781 272.46 231.564 313.26 245.22 319.006L270.188 283.093" fill="url(#paint1_linear_0_105)"/>
</g>
<g style="mix-blend-mode:multiply" opacity="0.25">
<path d="M193.157 366.513L149.792 341.798L106.428 366.565C106.428 366.565 129.013 380.366 150.599 393.038C164.307 383.328 178.027 373.517 193.157 366.513Z" fill="url(#paint2_linear_0_105)"/>
</g>
<g style="mix-blend-mode:multiply" opacity="0.46">
<path d="M99.7275 213.883L72.2227 229.595C72.2227 229.595 74.5543 243.999 88.2106 249.745L124.222 226.658" fill="url(#paint3_linear_0_105)"/>
</g>
<ellipse cx="113.192" cy="217.898" rx="16.59" ry="11.6974" fill="#68E1FD"/>
<ellipse cx="113.179" cy="210.997" rx="12.4265" ry="5.09196" fill="#974C26"/>
<path fill-rule="evenodd" clip-rule="evenodd" d="M112.474 195.619C112.654 197.915 112.73 200.21 112.73 202.506C112.718 205.379 112.577 208.252 112.269 211.113C111.283 209.74 110.309 208.304 109.284 206.688C107.965 204.623 106.735 202.506 105.608 200.339C104.56 198.411 103.664 196.404 102.93 194.336C102.114 192.09 101.459 189.788 100.97 187.448C100.842 186.884 100.727 186.217 100.624 185.602V185.383V184.845C100.522 183.639 100.419 182.357 100.419 181.074C100.362 176.712 101.204 172.385 102.892 168.363C107.377 174.876 110.401 182.284 111.757 190.078C111.842 190.54 111.923 191.006 112 191.476C112 191.386 112.18 192.322 112.18 192.669L112.308 193.836C112.368 194.426 112.423 195.02 112.474 195.619ZM106.21 176.687C106.21 176.687 106.21 176.687 106.21 176.687H106.197C106.201 176.687 106.206 176.687 106.21 176.687ZM106.21 176.687C106.525 176.669 106.841 176.704 107.145 176.79C106.838 176.448 106.526 176.115 106.21 175.79C106.275 176.085 106.276 176.391 106.21 176.687Z" fill="#999A1C"/>
<path fill-rule="evenodd" clip-rule="evenodd" d="M120.494 198.338C119.405 200.428 118.278 202.34 116.996 204.276C115.446 206.7 113.73 209.035 112.026 211.305C111.911 209.625 111.911 207.88 111.911 205.969C111.911 203.52 112.013 201.083 112.244 198.646C112.402 196.456 112.732 194.281 113.23 192.143C113.753 189.809 114.443 187.516 115.293 185.281C115.523 184.691 115.767 184.114 116.01 183.537L116.01 183.537L116.074 183.331L116.33 182.857C116.907 181.741 117.522 180.638 118.188 179.573C120.502 175.868 123.554 172.68 127.155 170.21C127.416 178.124 125.96 186 122.889 193.297C122.71 193.716 122.526 194.144 122.339 194.58L121.839 195.683L121.314 196.747C121.049 197.278 120.776 197.808 120.494 198.338ZM125.887 178.239C125.801 178.529 125.652 178.796 125.452 179.022C125.702 179.154 125.93 179.322 126.131 179.522C126.062 179.112 125.981 178.684 125.887 178.239Z" fill="#999A1C"/>
<path fill-rule="evenodd" clip-rule="evenodd" d="M120.75 207.919C119.478 208.663 118.196 209.355 116.907 209.997C115.293 210.805 113.64 211.523 111.987 212.216C112.474 211.279 113.025 210.317 113.64 209.291C114.447 208.009 115.293 206.726 116.202 205.443C116.993 204.312 117.871 203.244 118.828 202.25C119.865 201.158 120.978 200.142 122.159 199.21L123.107 198.505L123.21 198.415L123.504 198.235C124.183 197.825 124.862 197.427 125.567 197.068C128.004 195.814 130.673 195.076 133.407 194.9C130.997 199.25 127.676 203.026 123.671 205.969L122.954 206.495L122.339 206.931L121.711 207.329L120.75 207.919ZM130.102 198.812C129.963 198.941 129.796 199.038 129.615 199.095V199.107C129.701 199.268 129.761 199.441 129.794 199.62C129.906 199.355 130.008 199.086 130.102 198.812Z" fill="#999A1C"/>
<path fill-rule="evenodd" clip-rule="evenodd" d="M112.474 195.619C112.654 197.915 112.73 200.21 112.73 202.506C112.718 205.379 112.577 208.252 112.269 211.113C111.283 209.74 110.309 208.304 109.284 206.688C107.965 204.623 106.735 202.506 105.608 200.339C104.56 198.411 103.664 196.404 102.93 194.336C102.114 192.09 101.459 189.788 100.97 187.448C100.842 186.884 100.727 186.217 100.624 185.602V185.383V184.845C100.522 183.639 100.419 182.357 100.419 181.074C100.362 176.712 101.204 172.385 102.892 168.363C107.377 174.876 110.401 182.284 111.757 190.078C111.842 190.54 111.923 191.006 112 191.476C112 191.386 112.18 192.322 112.18 192.669L112.308 193.836C112.368 194.426 112.423 195.02 112.474 195.619ZM106.21 176.687C106.21 176.687 106.21 176.687 106.21 176.687H106.197C106.201 176.687 106.206 176.687 106.21 176.687ZM106.21 176.687C106.525 176.669 106.841 176.704 107.145 176.79C106.838 176.448 106.526 176.115 106.21 175.79C106.275 176.085 106.276 176.391 106.21 176.687Z" fill="#999A1C"/>
<path fill-rule="evenodd" clip-rule="evenodd" d="M120.494 198.338C119.405 200.428 118.278 202.34 116.996 204.276C115.446 206.7 113.73 209.035 112.026 211.305C111.911 209.625 111.911 207.88 111.911 205.969C111.911 203.52 112.013 201.083 112.244 198.646C112.402 196.456 112.732 194.281 113.23 192.143C113.753 189.809 114.443 187.516 115.293 185.281C115.523 184.691 115.767 184.114 116.01 183.537L116.01 183.537L116.074 183.331L116.33 182.857C116.907 181.741 117.522 180.638 118.188 179.573C120.502 175.868 123.554 172.68 127.155 170.21C127.416 178.124 125.96 186 122.889 193.297C122.71 193.716 122.526 194.144 122.339 194.58L121.839 195.683L121.314 196.747C121.049 197.278 120.776 197.808 120.494 198.338ZM125.887 178.239C125.801 178.529 125.652 178.796 125.452 179.022C125.702 179.154 125.93 179.322 126.131 179.522C126.062 179.112 125.981 178.684 125.887 178.239Z" fill="#999A1C"/>
<path fill-rule="evenodd" clip-rule="evenodd" d="M120.75 207.919C119.478 208.663 118.196 209.355 116.907 209.997C115.293 210.805 113.64 211.523 111.987 212.216C112.474 211.279 113.025 210.317 113.64 209.291C114.447 208.009 115.293 206.726 116.202 205.443C116.993 204.312 117.871 203.244 118.828 202.25C119.865 201.158 120.978 200.142 122.159 199.21L123.107 198.505L123.21 198.415L123.504 198.235C124.183 197.825 124.862 197.427 125.567 197.068C128.004 195.814 130.673 195.076 133.407 194.9C130.997 199.25 127.676 203.026 123.671 205.969L122.954 206.495L122.339 206.931L121.711 207.329L120.75 207.919ZM130.102 198.812C129.963 198.941 129.796 199.038 129.615 199.095V199.107C129.701 199.268 129.761 199.441 129.794 199.62C129.906 199.355 130.008 199.086 130.102 198.812Z" fill="#999A1C"/>
<path d="M225.35 238.022L201.356 249.565C199.513 250.452 198.311 252.285 198.231 254.33C198.15 256.375 199.205 258.297 200.971 259.326L257.839 292.545C260.392 294.04 263.669 293.254 265.269 290.763L279.092 269.24" fill="#A1482D"/>
<path d="M355.854 182.344L164.525 71.9624C161.853 70.4244 158.566 70.4283 155.898 71.9726C153.23 73.517 151.587 76.3677 151.586 79.4529V194.285C151.586 196.851 152.953 199.222 155.173 200.505L359.146 318.39C360.578 319.221 362.345 319.222 363.778 318.394C365.211 317.565 366.093 316.033 366.09 314.375V200.018C366.084 192.717 362.18 185.976 355.854 182.344Z" fill="#F47B56"/>
<path d="M164.537 80.6456L350.089 187.525C354.122 189.85 356.608 194.154 356.61 198.812V284.888C356.607 286.564 355.714 288.112 354.265 288.953C352.816 289.793 351.031 289.798 349.577 288.967L160.348 180.304C158.907 179.477 158.017 177.941 158.017 176.277V84.4293C158.017 82.874 158.844 81.4365 160.188 80.6566C161.532 79.8767 163.189 79.8725 164.537 80.6456Z" fill="white"/>
<ellipse cx="241.738" cy="238.465" rx="4.03558" ry="4.61719" transform="rotate(-10.9 241.738 238.465)" fill="#AB643C"/>
<path opacity="0.32" d="M214.41 197.427L300.639 249.296L343.235 224.503L267.126 180.15" fill="url(#paint4_linear_0_105)"/>
<path d="M320.97 187.102L227.746 130.193C226.73 129.604 225.474 129.615 224.468 130.22C223.461 130.825 222.862 131.93 222.903 133.104V165.529C222.896 166.722 223.513 167.832 224.53 168.453L317.742 224.157C318.739 224.724 319.962 224.717 320.952 224.138C321.942 223.559 322.549 222.496 322.546 221.348L323.033 191.117C323.106 189.507 322.321 187.979 320.97 187.102Z" fill="#E2AC00"/>
<path d="M298.667 203.789C302.01 208.47 307.89 209.779 311.785 206.726C315.679 203.674 316.128 197.402 312.784 192.733C309.44 188.064 303.56 186.743 299.666 189.796C295.771 192.848 295.323 199.107 298.667 203.789Z" fill="white"/>
<path d="M289.52 181.318L251.497 158.397C250.82 158.08 250.014 158.331 249.635 158.976C249.257 159.621 249.431 160.448 250.037 160.886L288.059 183.806C288.736 184.123 289.543 183.873 289.921 183.228C290.3 182.583 290.126 181.755 289.52 181.318Z" fill="#F2F2F2"/>
<path d="M287.957 190.629L235.548 159.039C234.885 158.807 234.152 159.084 233.808 159.697C233.464 160.31 233.609 161.081 234.151 161.527L286.496 193.13C287.173 193.448 287.98 193.197 288.358 192.552C288.737 191.907 288.563 191.08 287.957 190.642V190.629Z" fill="#F2F2F2"/>
<path d="M302.369 193.387L209.196 136.49C208.18 135.902 206.924 135.912 205.918 136.518C204.911 137.123 204.312 138.227 204.353 139.402V171.813C204.338 173.009 204.951 174.124 205.968 174.751L299.179 230.454C300.187 231.034 301.429 231.025 302.427 230.429C303.426 229.833 304.025 228.745 303.996 227.581L304.483 197.35C304.526 195.748 303.723 194.242 302.369 193.387Z" fill="#F47B56"/>
<path d="M280.065 210.074C283.409 214.755 289.289 216.064 293.184 213.011C297.078 209.958 297.526 203.686 294.183 199.018C290.839 194.349 284.959 193.028 281.065 196.08C277.17 199.133 276.722 205.392 280.065 210.074Z" fill="white"/>
<path d="M270.918 187.602L232.87 164.682C232.194 164.365 231.387 164.615 231.008 165.26C230.63 165.905 230.804 166.733 231.41 167.17L269.432 190.091C270.109 190.408 270.916 190.157 271.294 189.512C271.673 188.867 271.499 188.04 270.893 187.602H270.918Z" fill="#F2F2F2"/>
<path d="M269.343 196.978L216.946 165.336C216.27 165.019 215.463 165.27 215.084 165.915C214.706 166.56 214.88 167.387 215.486 167.825L267.895 199.415C268.572 199.732 269.378 199.482 269.757 198.837C270.136 198.192 269.962 197.364 269.355 196.927L269.343 196.978Z" fill="#F2F2F2"/>
<path d="M278.989 197.209L185.791 140.313C184.774 139.724 183.519 139.735 182.512 140.34C181.506 140.945 180.907 142.049 180.948 143.224V175.636C180.94 176.829 181.558 177.939 182.575 178.56L275.786 234.264C276.794 234.844 278.036 234.834 279.035 234.238C280.033 233.643 280.633 232.554 280.603 231.391L281.09 201.16C281.132 199.565 280.334 198.065 278.989 197.209Z" fill="#68E1FD"/>
<path d="M278.989 197.209L185.791 140.313C184.774 139.724 183.519 139.735 182.512 140.34C181.506 140.945 180.907 142.049 180.948 143.224V175.636C180.94 176.829 181.558 177.939 182.575 178.56L275.786 234.264C276.794 234.844 278.036 234.834 279.035 234.238C280.033 233.643 280.633 232.554 280.603 231.391L281.09 201.16C281.132 199.565 280.334 198.065 278.989 197.209Z" fill="#68E1FD"/>
<path d="M256.673 213.896C260.016 218.577 265.897 219.886 269.791 216.833C273.686 213.78 274.134 207.508 270.79 202.84C267.447 198.171 261.566 196.85 257.672 199.903C253.777 202.955 253.368 209.214 256.673 213.896Z" fill="white"/>
<path d="M247.526 191.425L209.491 168.504C208.814 168.187 208.007 168.438 207.629 169.083C207.25 169.728 207.424 170.555 208.03 170.993L246.053 193.913C246.729 194.23 247.536 193.98 247.915 193.335C248.293 192.69 248.119 191.862 247.513 191.425H247.526Z" fill="#F2F2F2"/>
<path d="M245.95 200.749L193.541 169.158C192.864 168.841 192.058 169.092 191.679 169.737C191.301 170.382 191.475 171.209 192.081 171.647L244.49 203.237C245.166 203.555 245.973 203.304 246.352 202.659C246.73 202.014 246.556 201.187 245.95 200.749Z" fill="#F2F2F2"/>
<path d="M156.672 194.028C150.649 199.218 146.094 205.902 143.464 213.409C138.826 226.235 150.42 247.192 150.42 247.192L168.458 232.891" fill="#FF8F6F"/>
<path d="M154.724 363.602L149.831 360.896L151.112 353.893C151.112 353.893 158.401 354.585 159.042 357.176" fill="#003B94"/>
<path d="M156.518 363.499C157.62 362.82 158.773 362.217 159.913 361.614C162.744 360.062 166.831 358.459 168.573 355.547C169.304 354.342 169.212 352.809 168.342 351.699C165.78 348.595 160.169 353.7 157.299 350.263C156.736 349.583 156.467 338.796 156.467 338.796L145.552 341.746C145.552 341.746 143.707 363.422 143.912 364.756C144.117 366.09 147.871 367.321 147.871 367.321C148.988 367.084 150.055 366.649 151.022 366.039C152.162 365.205 151.124 355.034 152.585 356.458C154.045 357.881 154.686 363.448 154.686 363.448C155.292 363.54 155.907 363.557 156.518 363.499Z" fill="#F47B56"/>
<path d="M175.568 374.081L170.674 371.413L171.955 364.41C171.955 364.41 179.244 365.103 179.885 367.694" fill="#003B94"/>
<path d="M177.412 373.978C178.514 373.298 179.667 372.696 180.807 372.093C183.638 370.541 187.725 368.938 189.467 366.026C190.198 364.82 190.106 363.288 189.237 362.178C186.674 359.074 181.063 364.179 178.194 360.742C177.63 360.062 177.361 349.275 177.361 349.275L166.446 352.225C166.446 352.225 164.589 373.978 164.794 375.261C164.999 376.543 168.752 377.826 168.752 377.826C169.87 377.588 170.937 377.154 171.904 376.543C173.044 375.71 172.006 365.539 173.467 366.962C174.927 368.386 175.568 373.953 175.568 373.953C176.179 374.037 176.799 374.046 177.412 373.978Z" fill="#F47B56"/>
<path d="M140.005 303.614L136.789 346.672C136.789 346.672 141.914 353.752 159.093 349.814L159.259 320.789" fill="#3E2928"/>
<path d="M159.849 312.144C159.477 315.85 159.849 356.74 159.849 356.74C159.849 356.74 164.601 365.641 185.291 356.74L184.996 321.994" fill="#3E2928"/>
<path d="M138.403 317.838C139.813 318.813 140.299 313.798 141.773 314.658C147.132 317.775 152.821 320.287 158.734 322.148H158.862C159.147 322.01 159.475 321.993 159.773 322.102C160.07 322.21 160.31 322.436 160.438 322.725C164.091 323.816 167.809 324.673 171.571 325.29C176.4 326.06 180.397 322.482 185.355 322.238C185.355 303.23 185.445 249.129 177.361 237.586L153.443 229.531C153.328 231.506 141.837 244.845 142.118 261.109C142.439 279.437 140.056 296.727 139.646 302.46C139.582 303.435 138.455 316.8 138.403 317.838Z" fill="#3E2928"/>
<path d="M179.564 215.73L177.361 237.534C177.361 237.534 159.516 238.253 151.829 232.943V214.447" fill="#FF8F6F"/>
<path d="M202.252 201.378L200.433 203.866C201.403 201.842 202.259 199.765 202.995 197.645C203.508 196.196 201.189 195.619 200.677 197.068L200.408 197.812C200.63 197.042 200.839 196.269 201.035 195.49C201.195 194.849 200.805 194.2 200.164 194.041C199.524 193.882 198.876 194.272 198.717 194.913C198.214 196.926 197.611 198.912 196.91 200.865C197.302 199.131 197.584 197.375 197.756 195.606C197.91 194.08 195.514 194.144 195.373 195.606C195.174 197.62 194.814 199.614 194.297 201.57C194.297 200.886 194.233 200.202 194.105 199.518C194.069 199.173 193.887 198.86 193.605 198.659C193.541 198.389 193.464 198.133 193.375 197.863C193.187 197.309 192.629 196.97 192.052 197.059C191.474 197.147 191.044 197.638 191.03 198.222L190.876 207.201C190.443 208.132 189.877 208.996 189.198 209.766C190.351 210.564 191.463 211.42 192.529 212.331C193.48 213.136 194.387 213.993 195.245 214.896C196.014 213.939 196.752 212.964 197.461 211.972C197.549 211.897 197.627 211.811 197.692 211.715C199.827 208.552 202.03 205.439 204.302 202.378C205.25 201.326 203.162 200.159 202.252 201.378Z" fill="#FFB5A9"/>
<path d="M168.24 195.85C168.24 195.85 176.669 198.12 180.09 203.545C182.232 207.3 184.119 211.196 185.739 215.204L191.965 205.52C191.965 205.52 199.524 207.842 202.521 211.562C202.521 211.562 193.554 231.185 185.739 232.866C177.925 234.546 169.623 221.348 169.623 221.348C169.623 221.348 167.907 226.863 168.24 220.976" fill="#FF8F6F"/>
<path d="M173.595 216.82C171.144 214.824 169.295 212.187 168.253 209.201C167.24 205.751 168.509 202.724 169.687 199.518C170.963 196.339 171.708 192.972 171.891 189.552C171.993 186.191 171.609 182.831 171.378 179.483C171.345 179.34 171.345 179.191 171.378 179.047C170.251 175.264 167.945 172.057 163.397 171.672C151.624 170.672 150.958 183.729 151.048 189.039C151.137 194.349 151.701 197.94 147.794 200.159C143.886 202.378 141.068 208.201 144.796 212.908C148.524 217.615 145.18 215.897 142.695 220.078C140.21 224.259 140.85 229.48 145.949 231.365C151.048 233.25 174.748 229.71 176.925 227.517C177.698 226.633 178.098 225.484 178.04 224.311C177.508 221.359 175.93 218.699 173.595 216.82Z" fill="#007F68"/>
<path fill-rule="evenodd" clip-rule="evenodd" d="M188.506 118.88C188.325 115.384 187.171 112.008 185.176 109.132C183.4 106.259 180.777 104.009 177.668 102.694C176.076 101.983 174.277 101.891 172.621 102.437C171.041 102.997 169.738 104.146 168.983 105.644C168.073 107.429 167.666 109.429 167.804 111.428C167.915 113.807 168.471 116.143 169.444 118.316C170.415 120.591 171.758 122.689 173.415 124.524C174.814 126.155 176.567 127.445 178.54 128.295C179.234 128.572 179.962 128.757 180.705 128.846C181.27 128.922 181.843 128.922 182.408 128.846C182.85 128.785 183.281 128.664 183.69 128.487C183.949 128.385 184.202 128.265 184.445 128.128L184.702 127.948L183.152 125.062L182.639 125.345C182.118 125.585 181.546 125.691 180.974 125.652C180.095 125.662 179.223 125.491 178.412 125.152C176.08 124.082 174.16 122.281 172.941 120.022C171.411 117.734 170.525 115.075 170.379 112.326C170.133 110.14 170.891 107.96 172.442 106.4C173.911 105.101 176.023 104.831 177.771 105.721C180.124 106.7 182.11 108.396 183.446 110.569C184.933 112.705 185.79 115.216 185.919 117.816C186.013 120.441 185.44 121.51 184.202 121.022C183.761 120.831 183.392 120.503 183.152 120.086C182.868 119.654 182.708 119.153 182.69 118.637L182.434 111.428L179.872 110.428V111.569L179.641 111.159C179.378 110.783 179.068 110.443 178.719 110.146C178.309 109.774 177.836 109.478 177.323 109.273C176.286 108.763 175.041 108.958 174.21 109.761C173.265 110.805 172.828 112.213 173.018 113.609C173.072 115.333 173.585 117.011 174.504 118.47C175.267 119.812 176.445 120.87 177.861 121.484C178.454 121.753 179.116 121.834 179.757 121.715C180.14 121.658 180.502 121.504 180.807 121.266C180.927 121.134 181.031 120.987 181.115 120.83L181.422 121.433C181.718 121.951 182.089 122.422 182.524 122.831C183.008 123.333 183.593 123.727 184.24 123.985C185.301 124.55 186.609 124.323 187.418 123.433C188.341 122.107 188.73 120.481 188.506 118.88ZM180.051 116.353C180.136 117.031 179.946 117.714 179.526 118.252C179.133 118.642 178.533 118.735 178.04 118.483C177.354 118.185 176.782 117.672 176.413 117.02C175.964 116.304 175.712 115.481 175.683 114.635C175.593 113.962 175.799 113.284 176.246 112.775C176.678 112.385 177.306 112.303 177.822 112.57C178.48 112.856 179.025 113.352 179.372 113.981C179.797 114.701 180.031 115.517 180.051 116.353Z" fill="#F47B56"/>
<path fill-rule="evenodd" clip-rule="evenodd" d="M339.764 257.761C339.586 254.264 338.432 250.887 336.433 248.013C334.721 245.108 332.152 242.805 329.079 241.421C327.482 240.715 325.68 240.623 324.019 241.164C322.44 241.732 321.138 242.884 320.381 244.383C319.471 246.164 319.063 248.16 319.202 250.155C319.312 252.534 319.869 254.87 320.842 257.043C321.813 259.322 323.155 261.424 324.813 263.263C326.214 264.89 327.966 266.176 329.938 267.022C330.628 267.303 331.351 267.492 332.09 267.586C332.66 267.661 333.237 267.661 333.807 267.586C334.246 267.517 334.676 267.397 335.088 267.227C335.348 267.124 335.6 267.004 335.844 266.868L336.1 266.688L334.55 263.802L334.037 264.084C333.515 264.32 332.944 264.426 332.372 264.392C331.492 264.392 330.622 264.217 329.81 263.879C327.482 262.861 325.542 261.121 324.275 258.915C322.743 256.629 321.857 253.97 321.713 251.22C321.441 249.029 322.182 246.833 323.725 245.256C325.198 243.964 327.308 243.7 329.054 244.589C331.4 245.568 333.38 247.259 334.716 249.424C336.202 251.565 337.059 254.08 337.189 256.684C337.266 259.313 336.74 260.378 335.459 259.89C335.018 259.699 334.65 259.371 334.409 258.954C334.129 258.52 333.97 258.02 333.948 257.505L333.691 250.296L331.129 249.309V250.45L330.886 250.04C330.622 249.661 330.312 249.316 329.963 249.014C329.554 248.641 329.081 248.346 328.567 248.142C327.534 247.633 326.294 247.828 325.467 248.629C324.515 249.669 324.078 251.08 324.275 252.477C324.329 254.207 324.847 255.89 325.774 257.351C326.535 258.698 327.713 259.761 329.131 260.378C329.72 260.647 330.379 260.723 331.014 260.596C331.398 260.542 331.76 260.387 332.064 260.147C332.182 260.013 332.285 259.867 332.372 259.711L332.679 260.313C332.978 260.83 333.349 261.301 333.781 261.712C334.268 262.211 334.852 262.604 335.498 262.866C336.559 263.426 337.864 263.2 338.675 262.314C339.598 260.988 339.987 259.362 339.764 257.761ZM331.321 255.234C331.402 255.914 331.208 256.597 330.783 257.133C330.387 257.519 329.788 257.607 329.297 257.351C328.61 257.048 328.039 256.531 327.67 255.876C327.221 255.163 326.969 254.345 326.94 253.503C326.851 252.828 327.061 252.148 327.517 251.643C327.951 251.257 328.578 251.181 329.092 251.451C329.748 251.736 330.289 252.233 330.63 252.862C331.061 253.58 331.299 254.397 331.321 255.234Z" fill="#F47B56"/>
<g style="mix-blend-mode:multiply" opacity="0.25">
<path d="M81.139 302.704L37.7744 278.001L-5.57735 302.755C-5.57735 302.755 18.5454 317.838 40.1316 330.511C53.8392 320.814 66.0223 309.72 81.139 302.704Z" fill="url(#paint5_linear_0_105)"/>
</g>
</g>
<g filter="url(#filter1_d_0_105)">
<path fill-rule="evenodd" clip-rule="evenodd" d="M-0.069519 233.886V287.755L41.8987 311.791L89.2859 283.766V229.897" fill="#FF9271"/>
</g>
<path d="M41.8987 257.922V311.791L89.2859 283.766V229.897L41.8987 257.922Z" fill="#DF5C34"/>
<path d="M-0.069519 233.886L48.6244 206.13L89.2859 229.897L41.8987 257.922L-0.069519 233.886Z" fill="#F47B56"/>
<path fill-rule="evenodd" clip-rule="evenodd" d="M57.2204 221.624C52.8792 219.247 47.9501 218.161 43.0132 218.494C37.8335 218.586 32.7728 220.065 28.3577 222.778C26.0421 224.097 24.1999 226.112 23.0924 228.537C22.1692 230.637 22.1692 233.029 23.0924 235.13C24.2104 237.512 26.0719 239.466 28.3961 240.696C31.2759 242.324 34.4507 243.362 37.7352 243.749C41.3487 244.249 45.0179 244.184 48.6116 243.557C51.9092 243.055 55.0772 241.913 57.9378 240.196C58.9308 239.589 59.8544 238.875 60.6922 238.067C61.3276 237.464 61.8947 236.793 62.3832 236.066C62.7215 235.527 62.9966 234.95 63.2031 234.347C63.3465 233.972 63.4621 233.586 63.549 233.193C63.5566 233.048 63.5566 232.902 63.549 232.757L58.7962 232.488L58.6168 233.296C58.3589 234.11 57.921 234.855 57.3357 235.476C56.4608 236.492 55.4267 237.358 54.2739 238.041C50.9421 240.017 47.1285 241.029 43.2566 240.966C39.3677 241.13 35.5095 240.211 32.1112 238.311C28.9982 236.477 27.3969 234.193 27.3969 231.628C27.3712 229.012 28.8701 226.759 31.8935 224.869C35.2157 222.843 39.021 221.749 42.9108 221.701C46.581 221.459 50.2438 222.274 53.4669 224.048C56.4988 225.844 57.1308 227.293 55.3629 228.396C54.0671 229.094 52.508 229.094 51.2122 228.396L42.8723 223.484L39.2725 225.728L40.5536 226.498H39.849C39.1591 226.536 38.4759 226.652 37.812 226.844C36.9796 227.06 36.1848 227.402 35.4549 227.857C33.9035 228.594 32.9086 230.153 32.8927 231.872C32.9696 233.462 33.9944 234.848 35.9929 236.028C38.1063 237.242 40.5132 237.85 42.9492 237.785C45.3036 237.831 47.6241 237.218 49.6492 236.015C50.5181 235.522 51.2426 234.81 51.7502 233.95C52.0553 233.487 52.2322 232.951 52.2626 232.398C52.2343 232.164 52.174 231.935 52.0833 231.718L53.0569 231.795C53.9488 231.821 54.8403 231.731 55.7088 231.526C56.7656 231.312 57.7762 230.913 58.6937 230.346C60.6281 229.178 61.448 227.793 61.2558 226.203C61.0637 224.612 59.7057 223.086 57.2204 221.624ZM46.075 229.756C46.9063 230.117 47.5056 230.866 47.6764 231.757H47.7276C47.7408 232.576 47.2682 233.326 46.5234 233.668C45.5394 234.249 44.4119 234.543 43.2695 234.514C42.0809 234.542 40.9073 234.245 39.8746 233.655C39.0535 233.295 38.4803 232.531 38.3629 231.641C38.3822 230.787 38.8766 230.015 39.644 229.64C40.5787 229.08 41.6557 228.804 42.7442 228.845C43.9156 228.847 45.0654 229.161 46.075 229.756Z" fill="#3E2928"/>
</g>
<defs>
<filter id="filter0_d_0_105" x="15" y="0" width="980" height="589" filterUnits="userSpaceOnUse" color-interpolation-filters="sRGB">
<feFlood flood-opacity="0" result="BackgroundImageFix"/>
<feColorMatrix in="SourceAlpha" type="matrix" values="0 0 0 0 0 0 0 0 0 0 0 0 0 0 0 0 0 0 127 0" result="hardAlpha"/>
<feMorphology radius="20" operator="erode" in="SourceAlpha" result="effect1_dropShadow_0_105"/>
<feOffset dy="50"/>
<feGaussianBlur stdDeviation="25"/>
<feColorMatrix type="matrix" values="0 0 0 0 0.209139 0 0 0 0 0.0691446 0 0 0 0 0.478091 0 0 0 0.497159 0"/>
<feBlend mode="normal" in2="BackgroundImageFix" result="effect1_dropShadow_0_105"/>
<feBlend mode="normal" in="SourceGraphic" in2="effect1_dropShadow_0_105" result="shape"/>
</filter>
<filter id="filter1_d_0_105" x="-50.0695" y="204.897" width="189.355" height="181.895" filterUnits="userSpaceOnUse" color-interpolation-filters="sRGB">
<feFlood flood-opacity="0" result="BackgroundImageFix"/>
<feColorMatrix in="SourceAlpha" type="matrix" values="0 0 0 0 0 0 0 0 0 0 0 0 0 0 0 0 0 0 127 0" result="hardAlpha"/>
<feOffset dy="25"/>
<feGaussianBlur stdDeviation="25"/>
<feColorMatrix type="matrix" values="0 0 0 0 0.209139 0 0 0 0 0.0691446 0 0 0 0 0.478091 0 0 0 0.497159 0"/>
<feBlend mode="normal" in2="BackgroundImageFix" result="effect1_dropShadow_0_105"/>
<feBlend mode="normal" in="SourceGraphic" in2="effect1_dropShadow_0_105" result="shape"/>
</filter>
<linearGradient id="paint0_linear_0_105" x1="-215" y1="-129" x2="-215" y2="639" gradientUnits="userSpaceOnUse">
<stop stop-color="#B068E9"/>
<stop offset="1" stop-color="#6463E7"/>
</linearGradient>
<linearGradient id="paint1_linear_0_105" x1="207.715" y1="255.543" x2="196.685" y2="288.24" gradientUnits="userSpaceOnUse">
<stop stop-color="#78B46A"/>
<stop offset="0.03" stop-color="#7F3500"/>
<stop offset="1" stop-color="white"/>
</linearGradient>
<linearGradient id="paint2_linear_0_105" x1="135.536" y1="322.477" x2="116.981" y2="380.838" gradientUnits="userSpaceOnUse">
<stop stop-color="#78B46A"/>
<stop offset="0.03" stop-color="#7F3500"/>
<stop offset="1" stop-color="white"/>
</linearGradient>
<linearGradient id="paint3_linear_0_105" x1="89.7001" y1="200.002" x2="72.5362" y2="239.625" gradientUnits="userSpaceOnUse">
<stop stop-color="#78B46A"/>
<stop offset="0.03" stop-color="#7F3500"/>
<stop offset="1" stop-color="white"/>
</linearGradient>
<linearGradient id="paint4_linear_0_105" x1="330.656" y1="235.452" x2="323.951" y2="218.459" gradientUnits="userSpaceOnUse">
<stop stop-color="white" stop-opacity="0.01"/>
<stop offset="0.99" stop-color="#DC841E"/>
</linearGradient>
<linearGradient id="paint5_linear_0_105" x1="24.555" y1="258.349" x2="5.03285" y2="316.801" gradientUnits="userSpaceOnUse">
<stop stop-color="#78B46A"/>
<stop offset="0.03" stop-color="#7F3500"/>
<stop offset="1" stop-color="white"/>
</linearGradient>
<clipPath id="clip0_0_105">
<rect width="1440" height="768" fill="white" transform="translate(-215 -129)"/>
</clipPath>
</defs>
</svg>
