<svg width="268" height="212" viewBox="0 0 268 212" fill="none" xmlns="http://www.w3.org/2000/svg">
<path opacity="0.0991676" d="M144.454 209.641L32.6666 141.832C29.1076 139.778 26.0571 136.413 29.5248 134.205L141.709 67.8413C143.391 66.7708 145.946 66.0683 147.66 67.092L264.988 136.995C268.547 139.116 269.186 145.024 265.64 147.164L159.185 209.534C154.638 212.241 149.037 212.282 144.454 209.641Z" fill="#6862E6"/>
<path d="M143.994 177.689L33.676 112.512C30.1639 110.538 27.1534 107.303 30.5756 105.181L141.286 41.3927C142.946 40.3637 145.467 39.6885 147.159 40.6724L262.945 107.863C266.457 109.901 267.087 115.58 263.588 117.637L158.532 177.586C154.045 180.188 148.517 180.227 143.994 177.689Z" fill="#5B36A0"/>
<path d="M143.994 174.681L33.676 109.504C30.1639 107.529 27.1534 104.295 30.5756 102.172L141.286 38.3843C142.946 37.3554 145.467 36.6801 147.159 37.664L262.945 104.854C266.457 106.893 267.087 112.571 263.588 114.629L158.532 174.578C154.045 177.18 148.517 177.219 143.994 174.681Z" fill="#6862E6"/>
<g style="mix-blend-mode:multiply" opacity="0.25">
<path d="M153.09 88.6869L131.322 101.105C131.322 101.105 164.855 121.562 171.712 124.443L184.249 106.436" fill="url(#paint0_linear_203_211)"/>
</g>
<g style="mix-blend-mode:multiply" opacity="0.25">
<path d="M145.57 148.263L123.796 135.87L102.022 148.289C102.022 148.289 113.362 155.208 124.201 161.562C131.084 156.694 137.973 151.774 145.57 148.263Z" fill="url(#paint1_linear_203_211)"/>
</g>
<g style="mix-blend-mode:multiply" opacity="0.46">
<path d="M98.6576 71.735L84.8469 79.6128C84.8469 79.6128 86.0176 86.8348 92.8747 89.7158L110.957 78.1402" fill="url(#paint2_linear_203_211)"/>
</g>
<ellipse cx="105.418" cy="73.7479" rx="8.33015" ry="5.86499" fill="#68E1FD"/>
<ellipse cx="105.412" cy="70.288" rx="6.23957" ry="2.55307" fill="#974C26"/>
<path fill-rule="evenodd" clip-rule="evenodd" d="M105.058 62.5774C105.148 63.7285 105.187 64.8796 105.187 66.0308C105.18 67.4713 105.11 68.9118 104.955 70.3459C104.46 69.6578 103.971 68.9375 103.456 68.1272C102.794 67.0919 102.176 66.0308 101.61 64.9439C101.084 63.9775 100.634 62.9712 100.266 61.9343C99.8559 60.8081 99.527 59.654 99.2816 58.4809C99.2173 58.1979 99.1594 57.8635 99.1079 57.5548V57.4455V57.1754C99.0565 56.5709 99.005 55.9278 99.005 55.2847C98.9764 53.0977 99.3991 50.9282 100.247 48.9117C102.499 52.1772 104.017 55.8915 104.698 59.7992C104.741 60.0307 104.781 60.2644 104.82 60.5002C104.82 60.4552 104.91 60.9246 104.91 61.0983L104.974 61.6835C105.004 61.9793 105.032 62.2773 105.058 62.5774ZM101.913 53.085C101.913 53.0851 101.913 53.0852 101.913 53.0854H101.906C101.908 53.0852 101.91 53.0851 101.913 53.085ZM101.913 53.085C102.071 53.0761 102.23 53.0936 102.382 53.1368C102.228 52.9653 102.071 52.7981 101.913 52.6352C101.946 52.7833 101.946 52.9369 101.913 53.085Z" fill="#999A1C"/>
<path fill-rule="evenodd" clip-rule="evenodd" d="M109.085 63.9407C108.538 64.989 107.972 65.9472 107.329 66.9182C106.55 68.1337 105.688 69.3041 104.833 70.4424C104.775 69.5999 104.775 68.7253 104.775 67.7671C104.775 66.5388 104.826 65.3169 104.942 64.0951C105.022 62.997 105.187 61.9068 105.438 60.8346C105.7 59.6645 106.046 58.5148 106.473 57.3941C106.589 57.0983 106.711 56.8089 106.833 56.5195L106.833 56.5195L106.866 56.4166L106.994 56.1786C107.284 55.6191 107.592 55.0661 107.927 54.5323C109.089 52.6743 110.622 51.0761 112.43 49.8378C112.56 53.8057 111.83 57.7548 110.288 61.4134C110.198 61.6235 110.105 61.8378 110.011 62.0565L109.76 62.6095L109.497 63.1433C109.364 63.4091 109.226 63.6749 109.085 63.9407ZM111.793 53.8635C111.75 54.0087 111.675 54.1426 111.574 54.2558C111.7 54.322 111.815 54.4065 111.915 54.5066C111.881 54.3008 111.84 54.0864 111.793 53.8635Z" fill="#999A1C"/>
<path fill-rule="evenodd" clip-rule="evenodd" d="M109.213 68.7446C108.574 69.1176 107.931 69.4649 107.284 69.7864C106.473 70.1916 105.643 70.5517 104.814 70.899C105.058 70.4295 105.335 69.9472 105.643 69.4327C106.049 68.7896 106.473 68.1465 106.93 67.5034C107.327 66.936 107.768 66.4006 108.249 65.9021C108.769 65.3549 109.328 64.8455 109.921 64.378L110.397 64.0243L110.449 63.9793L110.596 63.8893C110.937 63.6835 111.278 63.4841 111.632 63.3041C112.856 62.6753 114.196 62.3053 115.569 62.2172C114.359 64.3981 112.691 66.2914 110.68 67.7671L110.32 68.0308L110.011 68.2494L109.696 68.4488L109.213 68.7446ZM113.909 64.1787C113.839 64.2433 113.756 64.2917 113.665 64.3201V64.3266C113.708 64.4073 113.738 64.494 113.755 64.5838C113.811 64.4509 113.862 64.3159 113.909 64.1787Z" fill="#999A1C"/>
<path fill-rule="evenodd" clip-rule="evenodd" d="M105.058 62.5774C105.148 63.7285 105.187 64.8796 105.187 66.0308C105.18 67.4713 105.11 68.9118 104.955 70.3459C104.46 69.6578 103.971 68.9375 103.456 68.1272C102.794 67.0919 102.176 66.0308 101.61 64.9439C101.084 63.9775 100.634 62.9712 100.266 61.9343C99.8559 60.8081 99.527 59.654 99.2816 58.4809C99.2173 58.1979 99.1594 57.8635 99.1079 57.5548V57.4455V57.1754C99.0565 56.5709 99.005 55.9278 99.005 55.2847C98.9764 53.0977 99.3991 50.9282 100.247 48.9117C102.499 52.1772 104.017 55.8915 104.698 59.7992C104.741 60.0307 104.781 60.2644 104.82 60.5002C104.82 60.4552 104.91 60.9246 104.91 61.0983L104.974 61.6835C105.004 61.9793 105.032 62.2773 105.058 62.5774ZM101.913 53.085C101.913 53.0851 101.913 53.0852 101.913 53.0854H101.906C101.908 53.0852 101.91 53.0851 101.913 53.085ZM101.913 53.085C102.071 53.0761 102.23 53.0936 102.382 53.1368C102.228 52.9653 102.071 52.7981 101.913 52.6352C101.946 52.7833 101.946 52.9369 101.913 53.085Z" fill="#999A1C"/>
<path fill-rule="evenodd" clip-rule="evenodd" d="M109.085 63.9407C108.538 64.989 107.972 65.9472 107.329 66.9182C106.55 68.1337 105.688 69.3041 104.833 70.4424C104.775 69.5999 104.775 68.7253 104.775 67.7671C104.775 66.5388 104.826 65.3169 104.942 64.0951C105.022 62.997 105.187 61.9068 105.438 60.8346C105.7 59.6645 106.046 58.5148 106.473 57.3941C106.589 57.0983 106.711 56.8089 106.833 56.5195L106.833 56.5195L106.866 56.4166L106.994 56.1786C107.284 55.6191 107.592 55.0661 107.927 54.5323C109.089 52.6743 110.622 51.0761 112.43 49.8378C112.56 53.8057 111.83 57.7548 110.288 61.4134C110.198 61.6235 110.105 61.8378 110.011 62.0565L109.76 62.6095L109.497 63.1433C109.364 63.4091 109.226 63.6749 109.085 63.9407ZM111.793 53.8635C111.75 54.0087 111.675 54.1426 111.574 54.2558C111.7 54.322 111.815 54.4065 111.915 54.5066C111.881 54.3008 111.84 54.0864 111.793 53.8635Z" fill="#999A1C"/>
<path fill-rule="evenodd" clip-rule="evenodd" d="M109.213 68.7446C108.574 69.1176 107.931 69.4649 107.284 69.7864C106.473 70.1916 105.643 70.5517 104.814 70.899C105.058 70.4295 105.335 69.9472 105.643 69.4327C106.049 68.7896 106.473 68.1465 106.93 67.5034C107.327 66.936 107.768 66.4006 108.249 65.9021C108.769 65.3549 109.328 64.8455 109.921 64.378L110.397 64.0243L110.449 63.9793L110.596 63.8893C110.937 63.6835 111.278 63.4841 111.632 63.3041C112.856 62.6753 114.196 62.3053 115.569 62.2172C114.359 64.3981 112.691 66.2914 110.68 67.7671L110.32 68.0308L110.011 68.2494L109.696 68.4488L109.213 68.7446ZM113.909 64.1787C113.839 64.2433 113.756 64.2917 113.665 64.3201V64.3266C113.708 64.4073 113.738 64.494 113.755 64.5838C113.811 64.4509 113.862 64.3159 113.909 64.1787Z" fill="#999A1C"/>
<path d="M161.735 83.838L149.687 89.6258C148.762 90.0703 148.158 90.9894 148.118 92.0147C148.077 93.04 148.607 94.0037 149.494 94.5197L178.048 111.176C179.331 111.925 180.976 111.531 181.779 110.282L188.72 99.4908" fill="#A1482D"/>
<path d="M227.263 55.9214L131.193 0.576998C129.852 -0.194156 128.201 -0.192207 126.862 0.582114C125.522 1.35643 124.697 2.78575 124.697 4.33265V61.9086C124.696 63.1952 125.383 64.3842 126.498 65.0275L228.917 124.134C229.636 124.551 230.523 124.551 231.242 124.136C231.962 123.72 232.405 122.952 232.403 122.121V64.7832C232.4 61.1224 230.44 57.7426 227.263 55.9214Z" fill="#F47B56"/>
<path d="M131.2 4.93073L224.369 58.5195C226.394 59.6851 227.642 61.8428 227.643 64.1787V107.336C227.641 108.177 227.193 108.953 226.466 109.374C225.738 109.796 224.842 109.798 224.112 109.382L129.096 54.8989C128.372 54.4841 127.926 53.7138 127.926 52.8796V6.82784C127.926 6.04803 128.341 5.32727 129.016 4.93624C129.691 4.54522 130.523 4.54311 131.2 4.93073Z" fill="white"/>
<ellipse cx="169.964" cy="84.0603" rx="2.02623" ry="2.31515" transform="rotate(-10.9 169.964 84.0603)" fill="#AB643C"/>
<path opacity="0.32" d="M156.242 63.4841L199.539 89.4907L220.928 77.0598L182.712 54.8217" fill="url(#paint3_linear_203_211)"/>
<path d="M209.748 58.3072L162.938 29.7733C162.428 29.4783 161.797 29.4835 161.292 29.7869C160.787 30.0903 160.486 30.6441 160.507 31.2331V47.4905C160.503 48.0887 160.813 48.6452 161.324 48.9567L208.127 76.8861C208.627 77.1705 209.241 77.1669 209.739 76.8766C210.236 76.5863 210.541 76.0534 210.539 75.4778L210.783 60.3201C210.82 59.513 210.426 58.7469 209.748 58.3072Z" fill="#E2AC00"/>
<path d="M198.549 66.6739C200.228 69.0211 203.18 69.6771 205.136 68.1465C207.091 66.616 207.316 63.4713 205.637 61.1304C203.958 58.7896 201.006 58.1272 199.05 59.6577C197.095 61.1883 196.87 64.3266 198.549 66.6739Z" fill="white"/>
<path d="M193.956 55.4069L174.864 43.9149C174.524 43.7558 174.119 43.8815 173.929 44.2048C173.739 44.5282 173.826 44.9431 174.131 45.1625L193.223 56.6545C193.562 56.8136 193.967 56.6879 194.157 56.3646C194.348 56.0412 194.26 55.6263 193.956 55.4069V55.4069Z" fill="#F2F2F2"/>
<path d="M193.171 60.0758L166.855 44.2364C166.523 44.1202 166.155 44.2593 165.982 44.5665C165.809 44.8737 165.882 45.2604 166.154 45.484L192.438 61.3298C192.777 61.4888 193.183 61.3632 193.373 61.0398C193.563 60.7164 193.475 60.3015 193.171 60.0822V60.0758Z" fill="#F2F2F2"/>
<path d="M200.408 61.4584L153.624 32.9309C153.113 32.6358 152.483 32.641 151.978 32.9445C151.472 33.2479 151.172 33.8017 151.192 34.3907V50.6416C151.185 51.2408 151.492 51.8 152.003 52.1143L198.806 80.0437C199.312 80.3345 199.936 80.3296 200.437 80.031C200.938 79.7324 201.239 79.1865 201.225 78.6032L201.469 63.4455C201.491 62.6423 201.087 61.8871 200.408 61.4584V61.4584Z" fill="#F47B56"/>
<path d="M189.209 69.825C190.888 72.1723 193.84 72.8282 195.796 71.2977C197.751 69.7671 197.976 66.6224 196.297 64.2816C194.618 61.9407 191.666 61.2783 189.71 62.8089C187.755 64.3394 187.53 67.4777 189.209 69.825Z" fill="white"/>
<path d="M184.616 58.5581L165.511 47.066C165.171 46.907 164.766 47.0326 164.576 47.356C164.386 47.6794 164.473 48.0943 164.778 48.3136L183.87 59.8056C184.209 59.9647 184.614 59.8391 184.805 59.5157C184.995 59.1923 184.907 58.7774 184.603 58.5581H184.616Z" fill="#F2F2F2"/>
<path d="M183.825 63.259L157.515 47.394C157.176 47.2349 156.771 47.3606 156.58 47.684C156.39 48.0073 156.478 48.4222 156.782 48.6416L183.098 64.4809C183.437 64.64 183.842 64.5143 184.033 64.191C184.223 63.8676 184.135 63.4527 183.831 63.2333L183.825 63.259Z" fill="#F2F2F2"/>
<path d="M188.668 63.3748L141.871 34.8473C141.361 34.5523 140.731 34.5575 140.225 34.8609C139.72 35.1643 139.419 35.7181 139.44 36.3071V52.558C139.436 53.1562 139.746 53.7127 140.257 54.0243L187.06 81.9537C187.566 82.2445 188.19 82.2396 188.691 81.941C189.192 81.6423 189.494 81.0965 189.479 80.5132L189.723 65.3555C189.744 64.5558 189.344 63.8039 188.668 63.3748V63.3748Z" fill="#68E1FD"/>
<path d="M188.668 63.3748L141.871 34.8473C141.361 34.5523 140.731 34.5575 140.225 34.8609C139.72 35.1643 139.419 35.7181 139.44 36.3071V52.558C139.436 53.1562 139.746 53.7127 140.257 54.0243L187.06 81.9537C187.566 82.2445 188.19 82.2396 188.691 81.941C189.192 81.6423 189.494 81.0965 189.479 80.5132L189.723 65.3555C189.744 64.5558 189.344 63.8039 188.668 63.3748V63.3748Z" fill="#68E1FD"/>
<path d="M177.463 71.7414C179.142 74.0887 182.094 74.7447 184.05 73.2141C186.005 71.6835 186.23 68.5388 184.551 66.198C182.873 63.8571 179.92 63.1947 177.964 64.7253C176.009 66.2559 175.803 69.3941 177.463 71.7414Z" fill="white"/>
<path d="M172.87 60.4745L153.772 48.9824C153.432 48.8234 153.027 48.949 152.837 49.2724C152.647 49.5958 152.734 50.0107 153.038 50.23L172.13 61.7221C172.47 61.8811 172.875 61.7555 173.065 61.4321C173.255 61.1087 173.168 60.6938 172.864 60.4745H172.87Z" fill="#F2F2F2"/>
<path d="M172.079 65.1497L145.763 49.3104C145.423 49.1514 145.018 49.277 144.828 49.6004C144.638 49.9238 144.726 50.3386 145.03 50.558L171.345 66.3973C171.685 66.5564 172.09 66.4308 172.28 66.1074C172.47 65.784 172.383 65.3691 172.079 65.1497V65.1497Z" fill="#F2F2F2"/>
<path d="M127.25 61.7799C124.226 64.3822 121.939 67.7331 120.618 71.497C118.29 77.9279 124.111 88.436 124.111 88.436L133.168 81.2656" fill="#FF8F6F"/>
<path d="M126.273 146.803L123.815 145.446L124.459 141.935C124.459 141.935 128.119 142.282 128.44 143.581" fill="#003B94"/>
<path d="M127.173 146.752C127.726 146.411 128.305 146.108 128.878 145.806C130.299 145.028 132.351 144.224 133.226 142.764C133.593 142.16 133.547 141.391 133.11 140.835C131.824 139.279 129.006 141.838 127.565 140.115C127.282 139.774 127.147 134.366 127.147 134.366L121.667 135.845C121.667 135.845 120.741 146.713 120.843 147.382C120.946 148.051 122.831 148.668 122.831 148.668C123.392 148.549 123.928 148.331 124.413 148.025C124.986 147.607 124.465 142.507 125.198 143.221C125.932 143.935 126.253 146.726 126.253 146.726C126.558 146.772 126.867 146.781 127.173 146.752Z" fill="#F47B56"/>
<path d="M136.738 152.057L134.281 150.719L134.924 147.208C134.924 147.208 138.584 147.555 138.906 148.854" fill="#003B94"/>
<path d="M137.665 152.006C138.218 151.665 138.797 151.362 139.369 151.06C140.791 150.282 142.843 149.478 143.718 148.018C144.085 147.414 144.038 146.645 143.602 146.089C142.315 144.533 139.498 147.092 138.057 145.369C137.774 145.028 137.639 139.62 137.639 139.62L132.158 141.099C132.158 141.099 131.226 152.006 131.328 152.649C131.431 153.292 133.316 153.935 133.316 153.935C133.877 153.816 134.413 153.598 134.899 153.292C135.471 152.874 134.95 147.774 135.683 148.488C136.417 149.202 136.738 151.993 136.738 151.993C137.045 152.035 137.356 152.039 137.665 152.006Z" fill="#F47B56"/>
<path d="M118.882 116.726L117.267 138.314C117.267 138.314 119.84 141.864 128.466 139.89V139.89L128.55 125.337" fill="#3E2928"/>
<path d="M128.846 121.002C128.659 122.861 128.846 143.362 128.846 143.362C128.846 143.362 131.232 147.825 141.621 143.362L141.473 125.941" fill="#3E2928"/>
<path d="M118.078 123.857C118.785 124.346 119.03 121.832 119.769 122.263C122.461 123.825 125.317 125.085 128.286 126.018H128.35C128.493 125.949 128.658 125.94 128.807 125.995C128.957 126.05 129.077 126.162 129.141 126.308C130.976 126.855 132.843 127.284 134.731 127.594C137.156 127.98 139.163 126.185 141.653 126.063C141.653 116.533 141.698 89.4071 137.639 83.6193L125.629 79.5807C125.571 80.571 119.801 87.2592 119.943 95.4136C120.104 104.603 118.907 113.272 118.701 116.147C118.669 116.636 118.103 123.337 118.078 123.857Z" fill="#3E2928"/>
<path d="M138.745 72.661L137.639 83.5936C137.639 83.5936 128.678 83.9537 124.819 81.2913V72.0179" fill="#FF8F6F"/>
<path d="M150.137 65.4649L149.224 66.7125C149.711 65.6977 150.14 64.6564 150.51 63.5935C150.768 62.8668 149.603 62.5774 149.346 63.3041L149.211 63.6771C149.322 63.2912 149.428 62.9032 149.526 62.5131C149.606 62.1916 149.41 61.8663 149.089 61.7864C148.767 61.7065 148.442 61.9023 148.362 62.2237C148.11 63.2328 147.807 64.2287 147.455 65.2076C147.651 64.3385 147.793 63.4579 147.879 62.571C147.957 61.8057 146.754 61.8378 146.683 62.571C146.583 63.5806 146.402 64.5806 146.143 65.5613C146.143 65.2183 146.111 64.8754 146.046 64.5324C146.028 64.3594 145.937 64.2024 145.795 64.1015C145.763 63.9665 145.725 63.8378 145.68 63.7028C145.585 63.4251 145.305 63.2549 145.015 63.2993C144.725 63.3436 144.509 63.5897 144.502 63.8829L144.425 68.3845C144.207 68.8513 143.924 69.2845 143.583 69.6707C144.161 70.071 144.72 70.5003 145.255 70.9569C145.733 71.3605 146.188 71.7899 146.619 72.243C147.005 71.7629 147.376 71.2741 147.732 70.7768C147.776 70.7393 147.815 70.6961 147.847 70.6482C148.919 69.0619 150.026 67.5013 151.166 65.9665C151.643 65.4391 150.594 64.8539 150.137 65.4649Z" fill="#FFB5A9"/>
<path d="M133.059 62.6931C133.059 62.6931 137.292 63.8314 139.009 66.5517C140.085 68.4345 141.032 70.3875 141.846 72.3974L144.972 67.542C144.972 67.542 148.767 68.706 150.272 70.571C150.272 70.571 145.77 80.4103 141.846 81.2527C137.922 82.0952 133.754 75.4778 133.754 75.4778C133.754 75.4778 132.892 78.2431 133.059 75.2913" fill="#FF8F6F"/>
<path d="M135.748 73.2077C134.517 72.2069 133.589 70.8845 133.065 69.3877C132.557 67.6578 133.194 66.1401 133.786 64.5324C134.426 62.9388 134.8 61.2506 134.892 59.5356C134.944 57.8507 134.751 56.1658 134.635 54.4873C134.618 54.4153 134.618 54.3406 134.635 54.2686C134.069 52.3715 132.911 50.7638 130.627 50.5709C124.716 50.0693 124.381 56.6159 124.426 59.2783C124.471 61.9407 124.754 63.7414 122.792 64.8539C120.831 65.9665 119.415 68.8861 121.287 71.2462C123.159 73.6064 121.48 72.7446 120.232 74.8411C118.984 76.9376 119.306 79.555 121.866 80.5003C124.426 81.4457 136.327 79.6707 137.42 78.571C137.808 78.128 138.009 77.5515 137.98 76.9633C137.713 75.4834 136.92 74.1496 135.748 73.2077V73.2077Z" fill="#007F68"/>
<path fill-rule="evenodd" clip-rule="evenodd" d="M143.235 24.1013C143.144 22.3481 142.565 20.6553 141.563 19.2138C140.671 17.7731 139.354 16.645 137.793 15.9854C136.994 15.6289 136.09 15.583 135.259 15.8568C134.466 16.1376 133.811 16.7135 133.432 17.4646C132.975 18.3598 132.771 19.3624 132.84 20.3649C132.896 21.5574 133.175 22.7289 133.664 23.8183C134.151 24.959 134.825 26.0108 135.658 26.9309C136.36 27.7489 137.24 28.3956 138.231 28.8215C138.579 28.9607 138.945 29.0536 139.318 29.0981C139.602 29.1362 139.889 29.1362 140.173 29.0981C140.395 29.0674 140.611 29.0068 140.817 28.918C140.947 28.8667 141.074 28.8065 141.196 28.7379L141.325 28.6479L140.546 27.201L140.289 27.3424C140.028 27.4631 139.74 27.5162 139.453 27.4968C139.011 27.5014 138.574 27.4161 138.166 27.246C136.996 26.7094 136.032 25.8064 135.42 24.6736C134.651 23.5267 134.207 22.1936 134.133 20.8151C134.009 19.7189 134.39 18.6258 135.169 17.844C135.906 17.1924 136.967 17.0572 137.845 17.5031C139.026 17.9941 140.023 18.8446 140.694 19.934C141.441 21.0048 141.871 22.2639 141.936 23.5675C141.983 24.8837 141.696 25.4196 141.074 25.1752C140.852 25.0793 140.667 24.9148 140.546 24.7058C140.404 24.4894 140.324 24.238 140.315 23.9791L140.186 20.3649L138.9 19.8633V20.4356L138.784 20.2298C138.652 20.0416 138.496 19.8708 138.321 19.7218C138.115 19.5353 137.878 19.3872 137.62 19.2845C137.099 19.0286 136.474 19.1263 136.057 19.5289C135.582 20.0522 135.363 20.7583 135.458 21.4582C135.485 22.3225 135.743 23.164 136.204 23.8955C136.587 24.5687 137.179 25.0991 137.89 25.4067C138.188 25.5416 138.52 25.582 138.842 25.5225C139.034 25.4942 139.216 25.4167 139.369 25.2974C139.43 25.2313 139.482 25.1578 139.524 25.0788L139.678 25.381C139.826 25.6409 140.013 25.8772 140.231 26.082C140.474 26.3339 140.768 26.5312 141.093 26.6608C141.626 26.9442 142.283 26.8303 142.688 26.3842C143.152 25.7193 143.347 24.9039 143.235 24.1013ZM138.99 22.8344C139.032 23.1741 138.937 23.5166 138.726 23.7861C138.528 23.982 138.227 24.0287 137.98 23.9019C137.635 23.7526 137.348 23.4953 137.163 23.1688C136.937 22.8094 136.811 22.3967 136.796 21.9726C136.751 21.6355 136.855 21.2955 137.079 21.0401C137.296 20.8445 137.611 20.8036 137.87 20.9372C138.201 21.0808 138.474 21.3295 138.649 21.6446C138.862 22.0056 138.98 22.4152 138.99 22.8344Z" fill="#F47B56"/>
<path fill-rule="evenodd" clip-rule="evenodd" d="M219.184 93.7351C219.095 91.9817 218.515 90.2884 217.512 88.8476C216.652 87.3909 215.362 86.2362 213.82 85.5421C213.017 85.1882 212.113 85.1424 211.279 85.4135C210.486 85.6981 209.832 86.2758 209.452 87.0277C208.995 87.9205 208.79 88.9211 208.86 89.9216C208.915 91.1142 209.195 92.2857 209.683 93.375C210.171 94.5177 210.845 95.5717 211.677 96.494C212.381 97.3096 213.261 97.9541 214.251 98.3782C214.597 98.5192 214.96 98.6143 215.331 98.6612C215.617 98.6991 215.907 98.6991 216.193 98.6612C216.414 98.6268 216.63 98.5663 216.836 98.4811C216.967 98.4298 217.094 98.3696 217.216 98.3011L217.345 98.211L216.566 96.7641L216.309 96.9055C216.047 97.0237 215.76 97.0767 215.473 97.0599C215.031 97.0597 214.594 96.9723 214.186 96.8027C213.017 96.292 212.043 95.4196 211.407 94.3139C210.638 93.1676 210.193 91.8341 210.121 90.4553C209.984 89.3568 210.356 88.2559 211.131 87.465C211.871 86.8172 212.93 86.6848 213.807 87.1306C214.985 87.6217 215.979 88.4696 216.65 89.555C217.396 90.6284 217.826 91.8894 217.891 93.1949C217.93 94.5133 217.666 95.047 217.023 94.8026C216.801 94.7068 216.616 94.5422 216.495 94.3332C216.355 94.1157 216.275 93.865 216.264 93.6065L216.135 89.9923L214.849 89.4971V90.0695L214.727 89.8637C214.594 89.6736 214.439 89.5008 214.263 89.3492C214.058 89.1624 213.82 89.0142 213.562 88.9119C213.044 88.6571 212.421 88.7548 212.006 89.1563C211.528 89.6778 211.308 90.3854 211.407 91.0856C211.434 91.9529 211.694 92.797 212.16 93.5293C212.542 94.2049 213.133 94.7377 213.845 95.047C214.141 95.1821 214.472 95.2204 214.791 95.1563C214.984 95.1296 215.166 95.0519 215.318 94.9313C215.377 94.8641 215.429 94.7908 215.473 94.7126L215.627 95.0149C215.777 95.2739 215.963 95.51 216.18 95.7158C216.425 95.9662 216.718 96.1632 217.042 96.2946C217.575 96.5757 218.23 96.4621 218.638 96.0181C219.101 95.3532 219.296 94.5378 219.184 93.7351ZM214.945 92.4682C214.986 92.8088 214.888 93.1514 214.675 93.42C214.476 93.6137 214.175 93.6578 213.929 93.5293C213.584 93.3776 213.297 93.1181 213.112 92.7898C212.887 92.4326 212.76 92.0221 212.745 91.6C212.7 91.2618 212.806 90.921 213.035 90.6676C213.253 90.4741 213.568 90.4357 213.826 90.5711C214.155 90.7142 214.427 90.9632 214.598 91.2785C214.814 91.6385 214.934 92.0484 214.945 92.4682Z" fill="#F47B56"/>
<g style="mix-blend-mode:multiply" opacity="0.25">
<path d="M89.324 116.269L67.5498 103.883L45.7821 116.295C45.7821 116.295 57.8946 123.857 68.7334 130.211C75.6163 125.349 81.7336 119.787 89.324 116.269Z" fill="url(#paint4_linear_203_211)"/>
</g>
<g filter="url(#filter0_d_203_211)">
<path fill-rule="evenodd" clip-rule="evenodd" d="M50 81.4709V108.406L70.9841 120.424L94.6777 106.411V79.4764" fill="#FF9271"/>
</g>
<path d="M70.9841 93.4889V120.424L94.6777 106.411V79.4764L70.9841 93.4889V93.4889Z" fill="#DF5C34"/>
<path d="M50 81.4709L74.3469 67.5931L94.6777 79.4764L70.9841 93.4889L50 81.4709V81.4709Z" fill="#F47B56"/>
<path fill-rule="evenodd" clip-rule="evenodd" d="M78.645 75.34C76.4744 74.1515 74.0098 73.6086 71.5414 73.7752C68.9515 73.8209 66.4212 74.5605 64.2136 75.9172C63.0558 76.5764 62.1347 77.5839 61.581 78.7967C61.1193 79.8468 61.1193 81.0428 61.581 82.093C62.14 83.2841 63.0707 84.261 64.2328 84.8762C65.6727 85.6902 67.2601 86.2091 68.9023 86.4025C70.7091 86.6526 72.5437 86.6202 74.3405 86.3063C75.9893 86.0555 77.5733 85.4847 79.0037 84.6261C79.5001 84.3226 79.9619 83.9656 80.3808 83.5616C80.6986 83.2602 80.9821 82.9247 81.2263 82.5611C81.3955 82.2914 81.533 82.003 81.6363 81.7018C81.708 81.5139 81.7658 81.321 81.8092 81.1246C81.8131 81.052 81.8131 80.9792 81.8092 80.9066L79.4328 80.7719L79.3432 81.1759C79.2142 81.5829 78.9952 81.9555 78.7026 82.2661C78.2652 82.774 77.7481 83.2072 77.1717 83.5487C75.5058 84.5366 73.599 85.0427 71.6631 85.0109C69.7186 85.0931 67.7895 84.6336 66.0904 83.6834C64.5339 82.7663 63.7332 81.6248 63.7332 80.3422C63.7204 79.0339 64.4698 77.9074 65.9815 76.9625C67.6426 75.9495 69.5453 75.4024 71.4901 75.3785C73.3253 75.2576 75.1567 75.6648 76.7682 76.5521C78.2841 77.4499 78.6001 78.1746 77.7162 78.7261C77.0683 79.075 76.2887 79.075 75.6408 78.7261L71.4709 76.2699L69.671 77.3922L70.3115 77.777H69.9592C69.6143 77.7962 69.2727 77.8543 68.9408 77.9501C68.5246 78.0583 68.1272 78.2291 67.7622 78.4568C66.9865 78.8251 66.489 79.6046 66.4811 80.4641C66.5195 81.2593 67.032 81.9519 68.0312 82.5419C69.0879 83.1492 70.2914 83.4532 71.5093 83.4205C72.6865 83.4435 73.8468 83.137 74.8594 82.5355C75.2938 82.2893 75.656 81.9333 75.9099 81.503C76.0624 81.2716 76.1508 81.0038 76.1661 80.727C76.1519 80.6101 76.1217 80.4957 76.0764 80.3871L76.5632 80.4256C77.0092 80.4387 77.4549 80.3934 77.8891 80.2909C78.4175 80.1841 78.9228 79.9843 79.3816 79.7009C80.3488 79.1173 80.7588 78.4247 80.6627 77.6295C80.5666 76.8343 79.8876 76.0711 78.645 75.34ZM73.0723 79.4059C73.4879 79.5864 73.7876 79.9609 73.8729 80.4063H73.8986C73.9052 80.8163 73.6689 81.1913 73.2965 81.3619C72.8045 81.6528 72.2407 81.7995 71.6695 81.7851C71.0752 81.7989 70.4884 81.6504 69.972 81.3555C69.5615 81.1753 69.2749 80.7935 69.2162 80.3486C69.2259 79.9214 69.473 79.5353 69.8568 79.3482C70.3241 79.0681 70.8626 78.93 71.4069 78.9506C71.9926 78.9513 72.5675 79.1085 73.0723 79.4059Z" fill="#3E2928"/>
<defs>
<filter id="filter0_d_203_211" x="0" y="54.4764" width="144.678" height="140.947" filterUnits="userSpaceOnUse" color-interpolation-filters="sRGB">
<feFlood flood-opacity="0" result="BackgroundImageFix"/>
<feColorMatrix in="SourceAlpha" type="matrix" values="0 0 0 0 0 0 0 0 0 0 0 0 0 0 0 0 0 0 127 0" result="hardAlpha"/>
<feOffset dy="25"/>
<feGaussianBlur stdDeviation="25"/>
<feColorMatrix type="matrix" values="0 0 0 0 0.209139 0 0 0 0 0.0691446 0 0 0 0 0.478091 0 0 0 0.497159 0"/>
<feBlend mode="normal" in2="BackgroundImageFix" result="effect1_dropShadow_203_211"/>
<feBlend mode="normal" in="SourceGraphic" in2="effect1_dropShadow_203_211" result="shape"/>
</filter>
<linearGradient id="paint0_linear_203_211" x1="152.88" y1="92.6229" x2="147.356" y2="109.022" gradientUnits="userSpaceOnUse">
<stop stop-color="#78B46A"/>
<stop offset="0.03" stop-color="#7F3500"/>
<stop offset="1" stop-color="white"/>
</linearGradient>
<linearGradient id="paint1_linear_203_211" x1="116.638" y1="126.183" x2="107.345" y2="155.453" gradientUnits="userSpaceOnUse">
<stop stop-color="#78B46A"/>
<stop offset="0.03" stop-color="#7F3500"/>
<stop offset="1" stop-color="white"/>
</linearGradient>
<linearGradient id="paint2_linear_203_211" x1="93.6226" y1="64.7751" x2="85.0253" y2="84.651" gradientUnits="userSpaceOnUse">
<stop stop-color="#78B46A"/>
<stop offset="0.03" stop-color="#7F3500"/>
<stop offset="1" stop-color="white"/>
</linearGradient>
<linearGradient id="paint3_linear_203_211" x1="214.611" y1="82.5495" x2="211.253" y2="74.026" gradientUnits="userSpaceOnUse">
<stop stop-color="white" stop-opacity="0.01"/>
<stop offset="0.99" stop-color="#DC841E"/>
</linearGradient>
<linearGradient id="paint4_linear_203_211" x1="60.9121" y1="94.0301" x2="51.1352" y2="123.346" gradientUnits="userSpaceOnUse">
<stop stop-color="#78B46A"/>
<stop offset="0.03" stop-color="#7F3500"/>
<stop offset="1" stop-color="white"/>
</linearGradient>
</defs>
</svg>
